solid OpenSCAD_Model
  facet normal -1 0 0
    outer loop
      vertex 0 79.2929 0
      vertex 0 80 2.5
      vertex 0 80 0.707107
    endloop
  endfacet
  facet normal -1 0 0
    outer loop
      vertex 0 76.7071 0
      vertex 0 80 2.5
      vertex 0 79.2929 0
    endloop
  endfacet
  facet normal -1 0 0
    outer loop
      vertex 0 76 0.707107
      vertex 0 80 2.5
      vertex 0 76.7071 0
    endloop
  endfacet
  facet normal -1 0 0
    outer loop
      vertex 0 72.7071 0
      vertex 0 76 0.707107
      vertex 0 75.2929 0
    endloop
  endfacet
  facet normal -1 0 0
    outer loop
      vertex 0 72 0.707107
      vertex 0 76 0.707107
      vertex 0 72.7071 0
    endloop
  endfacet
  facet normal -1 0 0
    outer loop
      vertex 0 76 0.707107
      vertex 0 72 0.707107
      vertex 0 80 2.5
    endloop
  endfacet
  facet normal -1 0 0
    outer loop
      vertex 0 68.7071 0
      vertex 0 72 0.707107
      vertex 0 71.2929 0
    endloop
  endfacet
  facet normal -1 0 0
    outer loop
      vertex 0 68 0.707107
      vertex 0 72 0.707107
      vertex 0 68.7071 0
    endloop
  endfacet
  facet normal -1 0 0
    outer loop
      vertex 0 72 0.707107
      vertex 0 68 0.707107
      vertex 0 80 2.5
    endloop
  endfacet
  facet normal -1 0 0
    outer loop
      vertex 0 64.7071 0
      vertex 0 68 0.707107
      vertex 0 67.2929 0
    endloop
  endfacet
  facet normal -1 0 0
    outer loop
      vertex 0 64 0.707107
      vertex 0 68 0.707107
      vertex 0 64.7071 0
    endloop
  endfacet
  facet normal -1 0 0
    outer loop
      vertex 0 64 0.707107
      vertex 0 80 2.5
      vertex 0 68 0.707107
    endloop
  endfacet
  facet normal -1 0 0
    outer loop
      vertex 0 60.7071 0
      vertex 0 64 0.707107
      vertex 0 63.2929 0
    endloop
  endfacet
  facet normal -1 0 0
    outer loop
      vertex 0 60 0.707107
      vertex 0 64 0.707107
      vertex 0 60.7071 0
    endloop
  endfacet
  facet normal -1 0 0
    outer loop
      vertex 0 60 0.707107
      vertex 0 80 2.5
      vertex 0 64 0.707107
    endloop
  endfacet
  facet normal -1 0 0
    outer loop
      vertex 0 56.7071 0
      vertex 0 60 0.707107
      vertex 0 59.2929 0
    endloop
  endfacet
  facet normal -1 0 0
    outer loop
      vertex 0 56 0.707107
      vertex 0 60 0.707107
      vertex 0 56.7071 0
    endloop
  endfacet
  facet normal -1 0 0
    outer loop
      vertex 0 56 0.707107
      vertex 0 80 2.5
      vertex 0 60 0.707107
    endloop
  endfacet
  facet normal -1 0 0
    outer loop
      vertex 0 52.7071 0
      vertex 0 56 0.707107
      vertex 0 55.2929 0
    endloop
  endfacet
  facet normal -1 0 0
    outer loop
      vertex 0 52 0.707107
      vertex 0 56 0.707107
      vertex 0 52.7071 0
    endloop
  endfacet
  facet normal -1 0 0
    outer loop
      vertex 0 52 0.707107
      vertex 0 80 2.5
      vertex 0 56 0.707107
    endloop
  endfacet
  facet normal -1 0 0
    outer loop
      vertex 0 48.7071 0
      vertex 0 52 0.707107
      vertex 0 51.2929 0
    endloop
  endfacet
  facet normal -1 0 0
    outer loop
      vertex 0 48 0.707107
      vertex 0 52 0.707107
      vertex 0 48.7071 0
    endloop
  endfacet
  facet normal -1 0 0
    outer loop
      vertex 0 48 0.707107
      vertex 0 80 2.5
      vertex 0 52 0.707107
    endloop
  endfacet
  facet normal -1 0 0
    outer loop
      vertex 0 44.7071 0
      vertex 0 48 0.707107
      vertex 0 47.2929 0
    endloop
  endfacet
  facet normal -1 0 0
    outer loop
      vertex 0 44 0.707107
      vertex 0 48 0.707107
      vertex 0 44.7071 0
    endloop
  endfacet
  facet normal -1 0 0
    outer loop
      vertex 0 44 0.707107
      vertex 0 80 2.5
      vertex 0 48 0.707107
    endloop
  endfacet
  facet normal -1 0 0
    outer loop
      vertex 0 40.7071 0
      vertex 0 44 0.707107
      vertex 0 43.2929 0
    endloop
  endfacet
  facet normal -1 0 0
    outer loop
      vertex 0 40 0.707107
      vertex 0 44 0.707107
      vertex 0 40.7071 0
    endloop
  endfacet
  facet normal -1 0 0
    outer loop
      vertex 0 40 0.707107
      vertex 0 80 2.5
      vertex 0 44 0.707107
    endloop
  endfacet
  facet normal -1 0 0
    outer loop
      vertex 0 36.7071 0
      vertex 0 40 0.707107
      vertex 0 39.2929 0
    endloop
  endfacet
  facet normal -1 0 0
    outer loop
      vertex 0 36 0.707107
      vertex 0 40 0.707107
      vertex 0 36.7071 0
    endloop
  endfacet
  facet normal -1 0 0
    outer loop
      vertex 0 36 0.707107
      vertex 0 80 2.5
      vertex 0 40 0.707107
    endloop
  endfacet
  facet normal -1 0 0
    outer loop
      vertex 0 32.7071 0
      vertex 0 36 0.707107
      vertex 0 35.2929 0
    endloop
  endfacet
  facet normal -1 0 0
    outer loop
      vertex 0 32 0.707107
      vertex 0 36 0.707107
      vertex 0 32.7071 0
    endloop
  endfacet
  facet normal -1 0 0
    outer loop
      vertex 0 0 2.5
      vertex 0 36 0.707107
      vertex 0 32 0.707107
    endloop
  endfacet
  facet normal -1 0 0
    outer loop
      vertex 0 28.7071 0
      vertex 0 32 0.707107
      vertex 0 31.2929 0
    endloop
  endfacet
  facet normal -1 0 0
    outer loop
      vertex 0 28 0.707107
      vertex 0 32 0.707107
      vertex 0 28.7071 0
    endloop
  endfacet
  facet normal -1 0 0
    outer loop
      vertex 0 0 2.5
      vertex 0 32 0.707107
      vertex 0 28 0.707107
    endloop
  endfacet
  facet normal -1 0 0
    outer loop
      vertex 0 24.7071 0
      vertex 0 28 0.707107
      vertex 0 27.2929 0
    endloop
  endfacet
  facet normal -1 0 0
    outer loop
      vertex 0 24 0.707107
      vertex 0 28 0.707107
      vertex 0 24.7071 0
    endloop
  endfacet
  facet normal -1 0 0
    outer loop
      vertex 0 0 2.5
      vertex 0 28 0.707107
      vertex 0 24 0.707107
    endloop
  endfacet
  facet normal -1 0 0
    outer loop
      vertex 0 20.7071 0
      vertex 0 24 0.707107
      vertex 0 23.2929 0
    endloop
  endfacet
  facet normal -1 0 0
    outer loop
      vertex 0 20 0.707107
      vertex 0 24 0.707107
      vertex 0 20.7071 0
    endloop
  endfacet
  facet normal -1 0 0
    outer loop
      vertex 0 0 2.5
      vertex 0 24 0.707107
      vertex 0 20 0.707107
    endloop
  endfacet
  facet normal -1 0 0
    outer loop
      vertex 0 16.7071 0
      vertex 0 20 0.707107
      vertex 0 19.2929 0
    endloop
  endfacet
  facet normal -1 0 0
    outer loop
      vertex 0 16 0.707107
      vertex 0 20 0.707107
      vertex 0 16.7071 0
    endloop
  endfacet
  facet normal -1 0 0
    outer loop
      vertex 0 0 2.5
      vertex 0 20 0.707107
      vertex 0 16 0.707107
    endloop
  endfacet
  facet normal -1 0 0
    outer loop
      vertex 0 12.7071 0
      vertex 0 16 0.707107
      vertex 0 15.2929 0
    endloop
  endfacet
  facet normal -1 0 0
    outer loop
      vertex 0 12 0.707107
      vertex 0 16 0.707107
      vertex 0 12.7071 0
    endloop
  endfacet
  facet normal -1 0 0
    outer loop
      vertex 0 0 2.5
      vertex 0 16 0.707107
      vertex 0 12 0.707107
    endloop
  endfacet
  facet normal -1 0 0
    outer loop
      vertex 0 8.70711 0
      vertex 0 12 0.707107
      vertex 0 11.2929 0
    endloop
  endfacet
  facet normal -1 0 0
    outer loop
      vertex 0 8 0.707107
      vertex 0 12 0.707107
      vertex 0 8.70711 0
    endloop
  endfacet
  facet normal -1 0 0
    outer loop
      vertex 0 0 2.5
      vertex 0 12 0.707107
      vertex 0 8 0.707107
    endloop
  endfacet
  facet normal -1 0 0
    outer loop
      vertex 0 4.70711 0
      vertex 0 8 0.707107
      vertex 0 7.29289 0
    endloop
  endfacet
  facet normal -1 0 0
    outer loop
      vertex 0 4 0.707107
      vertex 0 8 0.707107
      vertex 0 4.70711 0
    endloop
  endfacet
  facet normal -1 0 0
    outer loop
      vertex 0 0 2.5
      vertex 0 8 0.707107
      vertex 0 4 0.707107
    endloop
  endfacet
  facet normal -1 0 0
    outer loop
      vertex 0 0 2.5
      vertex 0 3.29289 0
      vertex 0 0.707107 0
    endloop
  endfacet
  facet normal -1 0 0
    outer loop
      vertex 0 0 2.5
      vertex 0 0.707107 0
      vertex 0 0 0.707107
    endloop
  endfacet
  facet normal -1 0 0
    outer loop
      vertex 0 3.29289 0
      vertex 0 0 2.5
      vertex 0 4 0.707107
    endloop
  endfacet
  facet normal -1 0 0
    outer loop
      vertex 0 36 0.707107
      vertex 0 0 2.5
      vertex 0 80 2.5
    endloop
  endfacet
  facet normal 0 0 1
    outer loop
      vertex 40 80 2.5
      vertex 0 80 2.5
      vertex 40 40 2.5
    endloop
  endfacet
  facet normal -0 0 1
    outer loop
      vertex 40 40 2.5
      vertex 120 0 2.5
      vertex 120 40 2.5
    endloop
  endfacet
  facet normal 0 0 1
    outer loop
      vertex 40 40 2.5
      vertex 0 0 2.5
      vertex 120 0 2.5
    endloop
  endfacet
  facet normal 0 0 1
    outer loop
      vertex 0 0 2.5
      vertex 40 40 2.5
      vertex 0 80 2.5
    endloop
  endfacet
  facet normal 1 0 0
    outer loop
      vertex 40 80 2.5
      vertex 40 79.2929 0
      vertex 40 80 0.707107
    endloop
  endfacet
  facet normal 1 0 0
    outer loop
      vertex 40 80 2.5
      vertex 40 76.7071 0
      vertex 40 79.2929 0
    endloop
  endfacet
  facet normal 1 0 0
    outer loop
      vertex 40 80 2.5
      vertex 40 76 0.707107
      vertex 40 76.7071 0
    endloop
  endfacet
  facet normal 1 0 0
    outer loop
      vertex 40 76 0.707107
      vertex 40 72.7071 0
      vertex 40 75.2929 0
    endloop
  endfacet
  facet normal 1 0 0
    outer loop
      vertex 40 72 0.707107
      vertex 40 76 0.707107
      vertex 40 80 2.5
    endloop
  endfacet
  facet normal 1 0 0
    outer loop
      vertex 40 76 0.707107
      vertex 40 72 0.707107
      vertex 40 72.7071 0
    endloop
  endfacet
  facet normal 1 0 0
    outer loop
      vertex 40 72 0.707107
      vertex 40 68.7071 0
      vertex 40 71.2929 0
    endloop
  endfacet
  facet normal 1 0 0
    outer loop
      vertex 40 68 0.707107
      vertex 40 72 0.707107
      vertex 40 80 2.5
    endloop
  endfacet
  facet normal 1 0 0
    outer loop
      vertex 40 72 0.707107
      vertex 40 68 0.707107
      vertex 40 68.7071 0
    endloop
  endfacet
  facet normal 1 0 0
    outer loop
      vertex 40 68 0.707107
      vertex 40 64.7071 0
      vertex 40 67.2929 0
    endloop
  endfacet
  facet normal 1 0 0
    outer loop
      vertex 40 68 0.707107
      vertex 40 64 0.707107
      vertex 40 64.7071 0
    endloop
  endfacet
  facet normal 1 0 0
    outer loop
      vertex 40 80 2.5
      vertex 40 64 0.707107
      vertex 40 68 0.707107
    endloop
  endfacet
  facet normal 1 0 0
    outer loop
      vertex 40 64 0.707107
      vertex 40 60.7071 0
      vertex 40 63.2929 0
    endloop
  endfacet
  facet normal 1 0 0
    outer loop
      vertex 40 64 0.707107
      vertex 40 60 0.707107
      vertex 40 60.7071 0
    endloop
  endfacet
  facet normal 1 0 0
    outer loop
      vertex 40 80 2.5
      vertex 40 60 0.707107
      vertex 40 64 0.707107
    endloop
  endfacet
  facet normal 1 0 0
    outer loop
      vertex 40 60 0.707107
      vertex 40 56.7071 0
      vertex 40 59.2929 0
    endloop
  endfacet
  facet normal 1 0 0
    outer loop
      vertex 40 60 0.707107
      vertex 40 56 0.707107
      vertex 40 56.7071 0
    endloop
  endfacet
  facet normal 1 -0 0
    outer loop
      vertex 40 40 2.5
      vertex 40 60 0.707107
      vertex 40 80 2.5
    endloop
  endfacet
  facet normal 1 0 0
    outer loop
      vertex 40 56 0.707107
      vertex 40 52.7071 0
      vertex 40 55.2929 0
    endloop
  endfacet
  facet normal 1 0 0
    outer loop
      vertex 40 56 0.707107
      vertex 40 52 0.707107
      vertex 40 52.7071 0
    endloop
  endfacet
  facet normal 1 0 0
    outer loop
      vertex 40 60 0.707107
      vertex 40 40 2.5
      vertex 40 56 0.707107
    endloop
  endfacet
  facet normal 1 0 0
    outer loop
      vertex 40 52 0.707107
      vertex 40 48.7071 0
      vertex 40 51.2929 0
    endloop
  endfacet
  facet normal 1 0 0
    outer loop
      vertex 40 52 0.707107
      vertex 40 48 0.707107
      vertex 40 48.7071 0
    endloop
  endfacet
  facet normal 1 0 0
    outer loop
      vertex 40 56 0.707107
      vertex 40 40 2.5
      vertex 40 52 0.707107
    endloop
  endfacet
  facet normal 1 0 0
    outer loop
      vertex 40 48 0.707107
      vertex 40 44.7071 0
      vertex 40 47.2929 0
    endloop
  endfacet
  facet normal 1 0 0
    outer loop
      vertex 40 48 0.707107
      vertex 40 44 0.707107
      vertex 40 44.7071 0
    endloop
  endfacet
  facet normal 1 0 0
    outer loop
      vertex 40 52 0.707107
      vertex 40 40 2.5
      vertex 40 48 0.707107
    endloop
  endfacet
  facet normal 1 0 0
    outer loop
      vertex 40 40 2.5
      vertex 40 43.2929 0
      vertex 40 44 0.707107
    endloop
  endfacet
  facet normal 1 0 0
    outer loop
      vertex 40 48 0.707107
      vertex 40 40 2.5
      vertex 40 44 0.707107
    endloop
  endfacet
  facet normal 1 0 0
    outer loop
      vertex 40 43.2929 0
      vertex 40 40 2.5
      vertex 40 40.7071 0
    endloop
  endfacet
  facet normal 1 0 0
    outer loop
      vertex 40 40.7071 0
      vertex 40 40 2.5
      vertex 40 40 0.707107
    endloop
  endfacet
  facet normal 0 0 -1
    outer loop
      vertex 0 76.7071 0
      vertex 40 79.2929 0
      vertex 40 76.7071 0
    endloop
  endfacet
  facet normal -0 0 -1
    outer loop
      vertex 40 79.2929 0
      vertex 0 76.7071 0
      vertex 0 79.2929 0
    endloop
  endfacet
  facet normal 0 0 -1
    outer loop
      vertex 0 72.7071 0
      vertex 40 75.2929 0
      vertex 40 72.7071 0
    endloop
  endfacet
  facet normal -0 0 -1
    outer loop
      vertex 40 75.2929 0
      vertex 0 72.7071 0
      vertex 0 75.2929 0
    endloop
  endfacet
  facet normal 0 0 -1
    outer loop
      vertex 0 68.7071 0
      vertex 40 71.2929 0
      vertex 40 68.7071 0
    endloop
  endfacet
  facet normal -0 0 -1
    outer loop
      vertex 40 71.2929 0
      vertex 0 68.7071 0
      vertex 0 71.2929 0
    endloop
  endfacet
  facet normal 0 0 -1
    outer loop
      vertex 0 64.7071 0
      vertex 40 67.2929 0
      vertex 40 64.7071 0
    endloop
  endfacet
  facet normal -0 0 -1
    outer loop
      vertex 40 67.2929 0
      vertex 0 64.7071 0
      vertex 0 67.2929 0
    endloop
  endfacet
  facet normal 0 0 -1
    outer loop
      vertex 0 60.7071 0
      vertex 40 63.2929 0
      vertex 40 60.7071 0
    endloop
  endfacet
  facet normal -0 0 -1
    outer loop
      vertex 40 63.2929 0
      vertex 0 60.7071 0
      vertex 0 63.2929 0
    endloop
  endfacet
  facet normal 0 0 -1
    outer loop
      vertex 0 56.7071 0
      vertex 40 59.2929 0
      vertex 40 56.7071 0
    endloop
  endfacet
  facet normal -0 0 -1
    outer loop
      vertex 40 59.2929 0
      vertex 0 56.7071 0
      vertex 0 59.2929 0
    endloop
  endfacet
  facet normal 0 0 -1
    outer loop
      vertex 0 52.7071 0
      vertex 40 55.2929 0
      vertex 40 52.7071 0
    endloop
  endfacet
  facet normal -0 0 -1
    outer loop
      vertex 40 55.2929 0
      vertex 0 52.7071 0
      vertex 0 55.2929 0
    endloop
  endfacet
  facet normal 0 0 -1
    outer loop
      vertex 0 48.7071 0
      vertex 40 51.2929 0
      vertex 40 48.7071 0
    endloop
  endfacet
  facet normal -0 0 -1
    outer loop
      vertex 40 51.2929 0
      vertex 0 48.7071 0
      vertex 0 51.2929 0
    endloop
  endfacet
  facet normal 0 0 -1
    outer loop
      vertex 0 44.7071 0
      vertex 40 47.2929 0
      vertex 40 44.7071 0
    endloop
  endfacet
  facet normal -0 0 -1
    outer loop
      vertex 40 47.2929 0
      vertex 0 44.7071 0
      vertex 0 47.2929 0
    endloop
  endfacet
  facet normal 0 0 -1
    outer loop
      vertex 0 40.7071 0
      vertex 40 43.2929 0
      vertex 40 40.7071 0
    endloop
  endfacet
  facet normal -0 0 -1
    outer loop
      vertex 40 43.2929 0
      vertex 0 40.7071 0
      vertex 0 43.2929 0
    endloop
  endfacet
  facet normal 0 0 -1
    outer loop
      vertex 0 36.7071 0
      vertex 120 39.2929 0
      vertex 120 36.7071 0
    endloop
  endfacet
  facet normal -0 0 -1
    outer loop
      vertex 120 39.2929 0
      vertex 0 36.7071 0
      vertex 0 39.2929 0
    endloop
  endfacet
  facet normal 0 0 -1
    outer loop
      vertex 0 32.7071 0
      vertex 120 35.2929 0
      vertex 120 32.7071 0
    endloop
  endfacet
  facet normal -0 0 -1
    outer loop
      vertex 120 35.2929 0
      vertex 0 32.7071 0
      vertex 0 35.2929 0
    endloop
  endfacet
  facet normal 0 0 -1
    outer loop
      vertex 0 28.7071 0
      vertex 120 31.2929 0
      vertex 120 28.7071 0
    endloop
  endfacet
  facet normal -0 0 -1
    outer loop
      vertex 120 31.2929 0
      vertex 0 28.7071 0
      vertex 0 31.2929 0
    endloop
  endfacet
  facet normal 0 0 -1
    outer loop
      vertex 0 24.7071 0
      vertex 120 27.2929 0
      vertex 120 24.7071 0
    endloop
  endfacet
  facet normal -0 0 -1
    outer loop
      vertex 120 27.2929 0
      vertex 0 24.7071 0
      vertex 0 27.2929 0
    endloop
  endfacet
  facet normal 0 0 -1
    outer loop
      vertex 0 20.7071 0
      vertex 120 23.2929 0
      vertex 120 20.7071 0
    endloop
  endfacet
  facet normal -0 0 -1
    outer loop
      vertex 120 23.2929 0
      vertex 0 20.7071 0
      vertex 0 23.2929 0
    endloop
  endfacet
  facet normal 0 0 -1
    outer loop
      vertex 0 16.7071 0
      vertex 120 19.2929 0
      vertex 120 16.7071 0
    endloop
  endfacet
  facet normal -0 0 -1
    outer loop
      vertex 120 19.2929 0
      vertex 0 16.7071 0
      vertex 0 19.2929 0
    endloop
  endfacet
  facet normal 0 0 -1
    outer loop
      vertex 0 12.7071 0
      vertex 120 15.2929 0
      vertex 120 12.7071 0
    endloop
  endfacet
  facet normal -0 0 -1
    outer loop
      vertex 120 15.2929 0
      vertex 0 12.7071 0
      vertex 0 15.2929 0
    endloop
  endfacet
  facet normal 0 0 -1
    outer loop
      vertex 0 8.70711 0
      vertex 120 11.2929 0
      vertex 120 8.70711 0
    endloop
  endfacet
  facet normal -0 0 -1
    outer loop
      vertex 120 11.2929 0
      vertex 0 8.70711 0
      vertex 0 11.2929 0
    endloop
  endfacet
  facet normal 0 0 -1
    outer loop
      vertex 0 4.70711 0
      vertex 120 7.29289 0
      vertex 120 4.70711 0
    endloop
  endfacet
  facet normal -0 0 -1
    outer loop
      vertex 120 7.29289 0
      vertex 0 4.70711 0
      vertex 0 7.29289 0
    endloop
  endfacet
  facet normal 0 0 -1
    outer loop
      vertex 0 0.707107 0
      vertex 120 3.29289 0
      vertex 120 0.707107 0
    endloop
  endfacet
  facet normal -0 0 -1
    outer loop
      vertex 120 3.29289 0
      vertex 0 0.707107 0
      vertex 0 3.29289 0
    endloop
  endfacet
  facet normal 0 -1 0
    outer loop
      vertex 0 0 0.707107
      vertex 120 0 2.5
      vertex 0 0 2.5
    endloop
  endfacet
  facet normal 0 -1 -0
    outer loop
      vertex 120 0 2.5
      vertex 0 0 0.707107
      vertex 120 0 0.707107
    endloop
  endfacet
  facet normal 0 1 -0
    outer loop
      vertex 40 80 0.707107
      vertex 0 80 2.5
      vertex 40 80 2.5
    endloop
  endfacet
  facet normal 0 1 0
    outer loop
      vertex 0 80 2.5
      vertex 40 80 0.707107
      vertex 0 80 0.707107
    endloop
  endfacet
  facet normal 1 0 0
    outer loop
      vertex 120 40 2.5
      vertex 120 39.2929 0
      vertex 120 40 0.707107
    endloop
  endfacet
  facet normal 1 0 0
    outer loop
      vertex 120 40 2.5
      vertex 120 36.7071 0
      vertex 120 39.2929 0
    endloop
  endfacet
  facet normal 1 0 0
    outer loop
      vertex 120 40 2.5
      vertex 120 36 0.707107
      vertex 120 36.7071 0
    endloop
  endfacet
  facet normal 1 0 0
    outer loop
      vertex 120 36 0.707107
      vertex 120 32.7071 0
      vertex 120 35.2929 0
    endloop
  endfacet
  facet normal 1 0 0
    outer loop
      vertex 120 32 0.707107
      vertex 120 36 0.707107
      vertex 120 40 2.5
    endloop
  endfacet
  facet normal 1 0 0
    outer loop
      vertex 120 36 0.707107
      vertex 120 32 0.707107
      vertex 120 32.7071 0
    endloop
  endfacet
  facet normal 1 0 0
    outer loop
      vertex 120 32 0.707107
      vertex 120 28.7071 0
      vertex 120 31.2929 0
    endloop
  endfacet
  facet normal 1 0 0
    outer loop
      vertex 120 28 0.707107
      vertex 120 32 0.707107
      vertex 120 40 2.5
    endloop
  endfacet
  facet normal 1 0 0
    outer loop
      vertex 120 32 0.707107
      vertex 120 28 0.707107
      vertex 120 28.7071 0
    endloop
  endfacet
  facet normal 1 0 0
    outer loop
      vertex 120 28 0.707107
      vertex 120 24.7071 0
      vertex 120 27.2929 0
    endloop
  endfacet
  facet normal 1 0 0
    outer loop
      vertex 120 28 0.707107
      vertex 120 24 0.707107
      vertex 120 24.7071 0
    endloop
  endfacet
  facet normal 1 0 0
    outer loop
      vertex 120 40 2.5
      vertex 120 24 0.707107
      vertex 120 28 0.707107
    endloop
  endfacet
  facet normal 1 0 0
    outer loop
      vertex 120 24 0.707107
      vertex 120 20.7071 0
      vertex 120 23.2929 0
    endloop
  endfacet
  facet normal 1 0 0
    outer loop
      vertex 120 24 0.707107
      vertex 120 20 0.707107
      vertex 120 20.7071 0
    endloop
  endfacet
  facet normal 1 0 0
    outer loop
      vertex 120 40 2.5
      vertex 120 20 0.707107
      vertex 120 24 0.707107
    endloop
  endfacet
  facet normal 1 0 0
    outer loop
      vertex 120 20 0.707107
      vertex 120 16.7071 0
      vertex 120 19.2929 0
    endloop
  endfacet
  facet normal 1 0 0
    outer loop
      vertex 120 20 0.707107
      vertex 120 16 0.707107
      vertex 120 16.7071 0
    endloop
  endfacet
  facet normal 1 -0 0
    outer loop
      vertex 120 0 2.5
      vertex 120 20 0.707107
      vertex 120 40 2.5
    endloop
  endfacet
  facet normal 1 0 0
    outer loop
      vertex 120 16 0.707107
      vertex 120 12.7071 0
      vertex 120 15.2929 0
    endloop
  endfacet
  facet normal 1 0 0
    outer loop
      vertex 120 16 0.707107
      vertex 120 12 0.707107
      vertex 120 12.7071 0
    endloop
  endfacet
  facet normal 1 0 0
    outer loop
      vertex 120 20 0.707107
      vertex 120 0 2.5
      vertex 120 16 0.707107
    endloop
  endfacet
  facet normal 1 0 0
    outer loop
      vertex 120 12 0.707107
      vertex 120 8.70711 0
      vertex 120 11.2929 0
    endloop
  endfacet
  facet normal 1 0 0
    outer loop
      vertex 120 12 0.707107
      vertex 120 8 0.707107
      vertex 120 8.70711 0
    endloop
  endfacet
  facet normal 1 0 0
    outer loop
      vertex 120 16 0.707107
      vertex 120 0 2.5
      vertex 120 12 0.707107
    endloop
  endfacet
  facet normal 1 0 0
    outer loop
      vertex 120 8 0.707107
      vertex 120 4.70711 0
      vertex 120 7.29289 0
    endloop
  endfacet
  facet normal 1 0 0
    outer loop
      vertex 120 8 0.707107
      vertex 120 4 0.707107
      vertex 120 4.70711 0
    endloop
  endfacet
  facet normal 1 0 0
    outer loop
      vertex 120 12 0.707107
      vertex 120 0 2.5
      vertex 120 8 0.707107
    endloop
  endfacet
  facet normal 1 0 0
    outer loop
      vertex 120 0 2.5
      vertex 120 3.29289 0
      vertex 120 4 0.707107
    endloop
  endfacet
  facet normal 1 0 0
    outer loop
      vertex 120 8 0.707107
      vertex 120 0 2.5
      vertex 120 4 0.707107
    endloop
  endfacet
  facet normal 1 0 0
    outer loop
      vertex 120 3.29289 0
      vertex 120 0 2.5
      vertex 120 0.707107 0
    endloop
  endfacet
  facet normal 1 0 0
    outer loop
      vertex 120 0.707107 0
      vertex 120 0 2.5
      vertex 120 0 0.707107
    endloop
  endfacet
  facet normal 0 1 -0
    outer loop
      vertex 120 40 0.707107
      vertex 40 40 2.5
      vertex 120 40 2.5
    endloop
  endfacet
  facet normal 0 1 0
    outer loop
      vertex 40 40 2.5
      vertex 120 40 0.707107
      vertex 40 40 0.707107
    endloop
  endfacet
  facet normal 0 -0.707107 -0.707107
    outer loop
      vertex 0 0.707107 0
      vertex 120 0 0.707107
      vertex 0 0 0.707107
    endloop
  endfacet
  facet normal 0 -0.707107 -0.707107
    outer loop
      vertex 120 0 0.707107
      vertex 0 0.707107 0
      vertex 120 0.707107 0
    endloop
  endfacet
  facet normal 0 0.707105 -0.707108
    outer loop
      vertex 0 3.29289 0
      vertex 120 4 0.707107
      vertex 120 3.29289 0
    endloop
  endfacet
  facet normal 0 0.707105 -0.707108
    outer loop
      vertex 120 4 0.707107
      vertex 0 3.29289 0
      vertex 0 4 0.707107
    endloop
  endfacet
  facet normal 0 -0.707105 -0.707108
    outer loop
      vertex 0 4.70711 0
      vertex 120 4 0.707107
      vertex 0 4 0.707107
    endloop
  endfacet
  facet normal 0 -0.707105 -0.707108
    outer loop
      vertex 120 4 0.707107
      vertex 0 4.70711 0
      vertex 120 4.70711 0
    endloop
  endfacet
  facet normal 0 0.707105 -0.707108
    outer loop
      vertex 0 7.29289 0
      vertex 120 8 0.707107
      vertex 120 7.29289 0
    endloop
  endfacet
  facet normal 0 0.707105 -0.707108
    outer loop
      vertex 120 8 0.707107
      vertex 0 7.29289 0
      vertex 0 8 0.707107
    endloop
  endfacet
  facet normal 0 -0.707105 -0.707108
    outer loop
      vertex 0 8.70711 0
      vertex 120 8 0.707107
      vertex 0 8 0.707107
    endloop
  endfacet
  facet normal 0 -0.707105 -0.707108
    outer loop
      vertex 120 8 0.707107
      vertex 0 8.70711 0
      vertex 120 8.70711 0
    endloop
  endfacet
  facet normal 0 0.70711 -0.707103
    outer loop
      vertex 0 11.2929 0
      vertex 120 12 0.707107
      vertex 120 11.2929 0
    endloop
  endfacet
  facet normal 0 0.70711 -0.707103
    outer loop
      vertex 120 12 0.707107
      vertex 0 11.2929 0
      vertex 0 12 0.707107
    endloop
  endfacet
  facet normal 0 -0.70711 -0.707103
    outer loop
      vertex 0 12.7071 0
      vertex 120 12 0.707107
      vertex 0 12 0.707107
    endloop
  endfacet
  facet normal 0 -0.70711 -0.707103
    outer loop
      vertex 120 12 0.707107
      vertex 0 12.7071 0
      vertex 120 12.7071 0
    endloop
  endfacet
  facet normal 0 0.70711 -0.707103
    outer loop
      vertex 0 15.2929 0
      vertex 120 16 0.707107
      vertex 120 15.2929 0
    endloop
  endfacet
  facet normal 0 0.70711 -0.707103
    outer loop
      vertex 120 16 0.707107
      vertex 0 15.2929 0
      vertex 0 16 0.707107
    endloop
  endfacet
  facet normal 0 -0.70711 -0.707103
    outer loop
      vertex 0 16 0.707107
      vertex 120 16.7071 0
      vertex 120 16 0.707107
    endloop
  endfacet
  facet normal -0 -0.70711 -0.707103
    outer loop
      vertex 120 16.7071 0
      vertex 0 16 0.707107
      vertex 0 16.7071 0
    endloop
  endfacet
  facet normal 0 0.70711 -0.707103
    outer loop
      vertex 0 19.2929 0
      vertex 120 20 0.707107
      vertex 120 19.2929 0
    endloop
  endfacet
  facet normal 0 0.70711 -0.707103
    outer loop
      vertex 120 20 0.707107
      vertex 0 19.2929 0
      vertex 0 20 0.707107
    endloop
  endfacet
  facet normal 0 -0.70711 -0.707103
    outer loop
      vertex 0 20 0.707107
      vertex 120 20.7071 0
      vertex 120 20 0.707107
    endloop
  endfacet
  facet normal -0 -0.70711 -0.707103
    outer loop
      vertex 120 20.7071 0
      vertex 0 20 0.707107
      vertex 0 20.7071 0
    endloop
  endfacet
  facet normal 0 0.70711 -0.707103
    outer loop
      vertex 0 23.2929 0
      vertex 120 24 0.707107
      vertex 120 23.2929 0
    endloop
  endfacet
  facet normal 0 0.70711 -0.707103
    outer loop
      vertex 120 24 0.707107
      vertex 0 23.2929 0
      vertex 0 24 0.707107
    endloop
  endfacet
  facet normal 0 -0.70711 -0.707103
    outer loop
      vertex 0 24 0.707107
      vertex 120 24.7071 0
      vertex 120 24 0.707107
    endloop
  endfacet
  facet normal -0 -0.70711 -0.707103
    outer loop
      vertex 120 24.7071 0
      vertex 0 24 0.707107
      vertex 0 24.7071 0
    endloop
  endfacet
  facet normal 0 0.70711 -0.707103
    outer loop
      vertex 0 27.2929 0
      vertex 120 28 0.707107
      vertex 120 27.2929 0
    endloop
  endfacet
  facet normal 0 0.70711 -0.707103
    outer loop
      vertex 120 28 0.707107
      vertex 0 27.2929 0
      vertex 0 28 0.707107
    endloop
  endfacet
  facet normal 0 -0.70711 -0.707103
    outer loop
      vertex 0 28 0.707107
      vertex 120 28.7071 0
      vertex 120 28 0.707107
    endloop
  endfacet
  facet normal -0 -0.70711 -0.707103
    outer loop
      vertex 120 28.7071 0
      vertex 0 28 0.707107
      vertex 0 28.7071 0
    endloop
  endfacet
  facet normal 0 0.70711 -0.707103
    outer loop
      vertex 0 31.2929 0
      vertex 120 32 0.707107
      vertex 120 31.2929 0
    endloop
  endfacet
  facet normal 0 0.70711 -0.707103
    outer loop
      vertex 120 32 0.707107
      vertex 0 31.2929 0
      vertex 0 32 0.707107
    endloop
  endfacet
  facet normal 0 -0.70711 -0.707103
    outer loop
      vertex 0 32 0.707107
      vertex 120 32.7071 0
      vertex 120 32 0.707107
    endloop
  endfacet
  facet normal -0 -0.70711 -0.707103
    outer loop
      vertex 120 32.7071 0
      vertex 0 32 0.707107
      vertex 0 32.7071 0
    endloop
  endfacet
  facet normal 0 0.70711 -0.707103
    outer loop
      vertex 0 35.2929 0
      vertex 120 36 0.707107
      vertex 120 35.2929 0
    endloop
  endfacet
  facet normal 0 0.70711 -0.707103
    outer loop
      vertex 120 36 0.707107
      vertex 0 35.2929 0
      vertex 0 36 0.707107
    endloop
  endfacet
  facet normal 0 -0.70711 -0.707103
    outer loop
      vertex 0 36 0.707107
      vertex 120 36.7071 0
      vertex 120 36 0.707107
    endloop
  endfacet
  facet normal -0 -0.70711 -0.707103
    outer loop
      vertex 120 36.7071 0
      vertex 0 36 0.707107
      vertex 0 36.7071 0
    endloop
  endfacet
  facet normal 0 0.70711 -0.707103
    outer loop
      vertex 120 39.2929 0
      vertex 40 40 0.707107
      vertex 120 40 0.707107
    endloop
  endfacet
  facet normal 0 0.70711 -0.707103
    outer loop
      vertex 0 39.2929 0
      vertex 40 40 0.707107
      vertex 120 39.2929 0
    endloop
  endfacet
  facet normal 0 0.70711 -0.707103
    outer loop
      vertex 40 40 0.707107
      vertex 0 39.2929 0
      vertex 0 40 0.707107
    endloop
  endfacet
  facet normal 0 -0.70711 -0.707103
    outer loop
      vertex 0 40 0.707107
      vertex 40 40.7071 0
      vertex 40 40 0.707107
    endloop
  endfacet
  facet normal -0 -0.70711 -0.707103
    outer loop
      vertex 40 40.7071 0
      vertex 0 40 0.707107
      vertex 0 40.7071 0
    endloop
  endfacet
  facet normal 0 0.70711 -0.707103
    outer loop
      vertex 0 43.2929 0
      vertex 40 44 0.707107
      vertex 40 43.2929 0
    endloop
  endfacet
  facet normal 0 0.70711 -0.707103
    outer loop
      vertex 40 44 0.707107
      vertex 0 43.2929 0
      vertex 0 44 0.707107
    endloop
  endfacet
  facet normal 0 -0.70711 -0.707103
    outer loop
      vertex 0 44 0.707107
      vertex 40 44.7071 0
      vertex 40 44 0.707107
    endloop
  endfacet
  facet normal -0 -0.70711 -0.707103
    outer loop
      vertex 40 44.7071 0
      vertex 0 44 0.707107
      vertex 0 44.7071 0
    endloop
  endfacet
  facet normal 0 0.70711 -0.707103
    outer loop
      vertex 0 47.2929 0
      vertex 40 48 0.707107
      vertex 40 47.2929 0
    endloop
  endfacet
  facet normal 0 0.70711 -0.707103
    outer loop
      vertex 40 48 0.707107
      vertex 0 47.2929 0
      vertex 0 48 0.707107
    endloop
  endfacet
  facet normal 0 -0.70711 -0.707103
    outer loop
      vertex 0 48 0.707107
      vertex 40 48.7071 0
      vertex 40 48 0.707107
    endloop
  endfacet
  facet normal -0 -0.70711 -0.707103
    outer loop
      vertex 40 48.7071 0
      vertex 0 48 0.707107
      vertex 0 48.7071 0
    endloop
  endfacet
  facet normal 0 0.70711 -0.707103
    outer loop
      vertex 0 51.2929 0
      vertex 40 52 0.707107
      vertex 40 51.2929 0
    endloop
  endfacet
  facet normal 0 0.70711 -0.707103
    outer loop
      vertex 40 52 0.707107
      vertex 0 51.2929 0
      vertex 0 52 0.707107
    endloop
  endfacet
  facet normal 0 -0.70711 -0.707103
    outer loop
      vertex 0 52 0.707107
      vertex 40 52.7071 0
      vertex 40 52 0.707107
    endloop
  endfacet
  facet normal -0 -0.70711 -0.707103
    outer loop
      vertex 40 52.7071 0
      vertex 0 52 0.707107
      vertex 0 52.7071 0
    endloop
  endfacet
  facet normal 0 0.70711 -0.707103
    outer loop
      vertex 0 55.2929 0
      vertex 40 56 0.707107
      vertex 40 55.2929 0
    endloop
  endfacet
  facet normal 0 0.70711 -0.707103
    outer loop
      vertex 40 56 0.707107
      vertex 0 55.2929 0
      vertex 0 56 0.707107
    endloop
  endfacet
  facet normal 0 -0.70711 -0.707103
    outer loop
      vertex 0 56 0.707107
      vertex 40 56.7071 0
      vertex 40 56 0.707107
    endloop
  endfacet
  facet normal -0 -0.70711 -0.707103
    outer loop
      vertex 40 56.7071 0
      vertex 0 56 0.707107
      vertex 0 56.7071 0
    endloop
  endfacet
  facet normal 0 0.70711 -0.707103
    outer loop
      vertex 0 59.2929 0
      vertex 40 60 0.707107
      vertex 40 59.2929 0
    endloop
  endfacet
  facet normal 0 0.70711 -0.707103
    outer loop
      vertex 40 60 0.707107
      vertex 0 59.2929 0
      vertex 0 60 0.707107
    endloop
  endfacet
  facet normal 0 -0.70711 -0.707103
    outer loop
      vertex 0 60 0.707107
      vertex 40 60.7071 0
      vertex 40 60 0.707107
    endloop
  endfacet
  facet normal -0 -0.70711 -0.707103
    outer loop
      vertex 40 60.7071 0
      vertex 0 60 0.707107
      vertex 0 60.7071 0
    endloop
  endfacet
  facet normal 0 0.70711 -0.707103
    outer loop
      vertex 0 63.2929 0
      vertex 40 64 0.707107
      vertex 40 63.2929 0
    endloop
  endfacet
  facet normal 0 0.70711 -0.707103
    outer loop
      vertex 40 64 0.707107
      vertex 0 63.2929 0
      vertex 0 64 0.707107
    endloop
  endfacet
  facet normal 0 -0.70711 -0.707103
    outer loop
      vertex 0 64 0.707107
      vertex 40 64.7071 0
      vertex 40 64 0.707107
    endloop
  endfacet
  facet normal -0 -0.70711 -0.707103
    outer loop
      vertex 40 64.7071 0
      vertex 0 64 0.707107
      vertex 0 64.7071 0
    endloop
  endfacet
  facet normal 0 0.70711 -0.707103
    outer loop
      vertex 0 67.2929 0
      vertex 40 68 0.707107
      vertex 40 67.2929 0
    endloop
  endfacet
  facet normal 0 0.70711 -0.707103
    outer loop
      vertex 40 68 0.707107
      vertex 0 67.2929 0
      vertex 0 68 0.707107
    endloop
  endfacet
  facet normal 0 -0.70711 -0.707103
    outer loop
      vertex 0 68 0.707107
      vertex 40 68.7071 0
      vertex 40 68 0.707107
    endloop
  endfacet
  facet normal -0 -0.70711 -0.707103
    outer loop
      vertex 40 68.7071 0
      vertex 0 68 0.707107
      vertex 0 68.7071 0
    endloop
  endfacet
  facet normal 0 0.70711 -0.707103
    outer loop
      vertex 0 71.2929 0
      vertex 40 72 0.707107
      vertex 40 71.2929 0
    endloop
  endfacet
  facet normal 0 0.70711 -0.707103
    outer loop
      vertex 40 72 0.707107
      vertex 0 71.2929 0
      vertex 0 72 0.707107
    endloop
  endfacet
  facet normal 0 -0.70711 -0.707103
    outer loop
      vertex 0 72 0.707107
      vertex 40 72.7071 0
      vertex 40 72 0.707107
    endloop
  endfacet
  facet normal -0 -0.70711 -0.707103
    outer loop
      vertex 40 72.7071 0
      vertex 0 72 0.707107
      vertex 0 72.7071 0
    endloop
  endfacet
  facet normal 0 0.70711 -0.707103
    outer loop
      vertex 0 75.2929 0
      vertex 40 76 0.707107
      vertex 40 75.2929 0
    endloop
  endfacet
  facet normal 0 0.70711 -0.707103
    outer loop
      vertex 40 76 0.707107
      vertex 0 75.2929 0
      vertex 0 76 0.707107
    endloop
  endfacet
  facet normal 0 -0.70711 -0.707103
    outer loop
      vertex 0 76 0.707107
      vertex 40 76.7071 0
      vertex 40 76 0.707107
    endloop
  endfacet
  facet normal -0 -0.70711 -0.707103
    outer loop
      vertex 40 76.7071 0
      vertex 0 76 0.707107
      vertex 0 76.7071 0
    endloop
  endfacet
  facet normal 0 0.70711 -0.707103
    outer loop
      vertex 0 79.2929 0
      vertex 40 80 0.707107
      vertex 40 79.2929 0
    endloop
  endfacet
  facet normal 0 0.70711 -0.707103
    outer loop
      vertex 40 80 0.707107
      vertex 0 79.2929 0
      vertex 0 80 0.707107
    endloop
  endfacet
endsolid OpenSCAD_Model
