solid OpenSCAD_Model
  facet normal -1 0 0
    outer loop
      vertex 0 39.2929 0
      vertex 0 40 2.4
      vertex 0 40 0.707107
    endloop
  endfacet
  facet normal -1 0 0
    outer loop
      vertex 0 36.7071 0
      vertex 0 40 2.4
      vertex 0 39.2929 0
    endloop
  endfacet
  facet normal -1 0 0
    outer loop
      vertex 0 36 0.707107
      vertex 0 40 2.4
      vertex 0 36.7071 0
    endloop
  endfacet
  facet normal -1 0 0
    outer loop
      vertex 0 32.7071 0
      vertex 0 36 0.707107
      vertex 0 35.2929 0
    endloop
  endfacet
  facet normal -1 0 0
    outer loop
      vertex 0 32 0.707107
      vertex 0 36 0.707107
      vertex 0 32.7071 0
    endloop
  endfacet
  facet normal -1 0 0
    outer loop
      vertex 0 36 0.707107
      vertex 0 32 0.707107
      vertex 0 40 2.4
    endloop
  endfacet
  facet normal -1 0 0
    outer loop
      vertex 0 28.7071 0
      vertex 0 32 0.707107
      vertex 0 31.2929 0
    endloop
  endfacet
  facet normal -1 0 0
    outer loop
      vertex 0 28 0.707107
      vertex 0 32 0.707107
      vertex 0 28.7071 0
    endloop
  endfacet
  facet normal -1 0 0
    outer loop
      vertex 0 28 0.707107
      vertex 0 40 2.4
      vertex 0 32 0.707107
    endloop
  endfacet
  facet normal -1 0 0
    outer loop
      vertex 0 24.7071 0
      vertex 0 28 0.707107
      vertex 0 27.2929 0
    endloop
  endfacet
  facet normal -1 0 0
    outer loop
      vertex 0 24 0.707107
      vertex 0 28 0.707107
      vertex 0 24.7071 0
    endloop
  endfacet
  facet normal -1 0 0
    outer loop
      vertex 0 24 0.707107
      vertex 0 40 2.4
      vertex 0 28 0.707107
    endloop
  endfacet
  facet normal -1 0 0
    outer loop
      vertex 0 20.7071 0
      vertex 0 24 0.707107
      vertex 0 23.2929 0
    endloop
  endfacet
  facet normal -1 0 0
    outer loop
      vertex 0 20 0.707107
      vertex 0 24 0.707107
      vertex 0 20.7071 0
    endloop
  endfacet
  facet normal -1 0 0
    outer loop
      vertex 0 20 0.707107
      vertex 0 40 2.4
      vertex 0 24 0.707107
    endloop
  endfacet
  facet normal -1 0 0
    outer loop
      vertex 0 16.7071 0
      vertex 0 20 0.707107
      vertex 0 19.2929 0
    endloop
  endfacet
  facet normal -1 0 0
    outer loop
      vertex 0 16 0.707107
      vertex 0 20 0.707107
      vertex 0 16.7071 0
    endloop
  endfacet
  facet normal -1 0 0
    outer loop
      vertex 0 0 2.4
      vertex 0 20 0.707107
      vertex 0 16 0.707107
    endloop
  endfacet
  facet normal -1 0 0
    outer loop
      vertex 0 12.7071 0
      vertex 0 16 0.707107
      vertex 0 15.2929 0
    endloop
  endfacet
  facet normal -1 0 0
    outer loop
      vertex 0 12 0.707107
      vertex 0 16 0.707107
      vertex 0 12.7071 0
    endloop
  endfacet
  facet normal -1 0 0
    outer loop
      vertex 0 0 2.4
      vertex 0 16 0.707107
      vertex 0 12 0.707107
    endloop
  endfacet
  facet normal -1 0 0
    outer loop
      vertex 0 8.70711 0
      vertex 0 12 0.707107
      vertex 0 11.2929 0
    endloop
  endfacet
  facet normal -1 0 0
    outer loop
      vertex 0 8 0.707107
      vertex 0 12 0.707107
      vertex 0 8.70711 0
    endloop
  endfacet
  facet normal -1 0 0
    outer loop
      vertex 0 0 2.4
      vertex 0 12 0.707107
      vertex 0 8 0.707107
    endloop
  endfacet
  facet normal -1 0 0
    outer loop
      vertex 0 4.70711 0
      vertex 0 8 0.707107
      vertex 0 7.29289 0
    endloop
  endfacet
  facet normal -1 0 0
    outer loop
      vertex 0 4 0.707107
      vertex 0 8 0.707107
      vertex 0 4.70711 0
    endloop
  endfacet
  facet normal -1 0 0
    outer loop
      vertex 0 0 2.4
      vertex 0 8 0.707107
      vertex 0 4 0.707107
    endloop
  endfacet
  facet normal -1 0 0
    outer loop
      vertex 0 0 2.4
      vertex 0 3.29289 0
      vertex 0 0.707107 0
    endloop
  endfacet
  facet normal -1 0 0
    outer loop
      vertex 0 0 2.4
      vertex 0 0.707107 0
      vertex 0 0 0.707107
    endloop
  endfacet
  facet normal -1 0 0
    outer loop
      vertex 0 3.29289 0
      vertex 0 0 2.4
      vertex 0 4 0.707107
    endloop
  endfacet
  facet normal -1 0 0
    outer loop
      vertex 0 20 0.707107
      vertex 0 0 2.4
      vertex 0 40 2.4
    endloop
  endfacet
  facet normal 0 -0.707107 -0.707107
    outer loop
      vertex 0 0.707107 0
      vertex 20 0 0.707107
      vertex 0 0 0.707107
    endloop
  endfacet
  facet normal -0 -0.707107 -0.707107
    outer loop
      vertex 25.1661 0.707107 0
      vertex 20 0 0.707107
      vertex 0 0.707107 0
    endloop
  endfacet
  facet normal -3.22703e-17 -0.707107 -0.707107
    outer loop
      vertex 20 0 0.707107
      vertex 25.1661 0.707107 0
      vertex 22.0906 0.109562 0.597545
    endloop
  endfacet
  facet normal 0 -0.707107 -0.707107
    outer loop
      vertex 22.0906 0.109562 0.597545
      vertex 25.1661 0.707107 0
      vertex 24.1582 0.437048 0.270059
    endloop
  endfacet
  facet normal -3.04721e-05 0.707128 -0.707086
    outer loop
      vertex 30.9446 3.29289 0
      vertex 31.9784 4 0.707107
      vertex 31.7557 3.81966 0.526766
    endloop
  endfacet
  facet normal 0 0.707105 -0.707108
    outer loop
      vertex 0 4 0.707107
      vertex 30.9446 3.29289 0
      vertex 0 3.29289 0
    endloop
  endfacet
  facet normal 0 0.707105 -0.707108
    outer loop
      vertex 30.9446 3.29289 0
      vertex 0 4 0.707107
      vertex 31.9784 4 0.707107
    endloop
  endfacet
  facet normal 0 -0.707105 -0.707108
    outer loop
      vertex 0 4.70711 0
      vertex 31.9784 4 0.707107
      vertex 0 4 0.707107
    endloop
  endfacet
  facet normal 0 -0.707105 -0.707108
    outer loop
      vertex 31.9784 4 0.707107
      vertex 0 4.70711 0
      vertex 32.8516 4.70711 0
    endloop
  endfacet
  facet normal 0 0.707105 -0.707108
    outer loop
      vertex 0 8 0.707107
      vertex 35.4099 7.29289 0
      vertex 0 7.29289 0
    endloop
  endfacet
  facet normal 0 0.707105 -0.707108
    outer loop
      vertex 35.4099 7.29289 0
      vertex 0 8 0.707107
      vertex 35.9825 8 0.707107
    endloop
  endfacet
  facet normal 0 -0.707105 -0.707108
    outer loop
      vertex 0 8.70711 0
      vertex 35.9825 8 0.707107
      vertex 0 8 0.707107
    endloop
  endfacet
  facet normal -0 -0.707105 -0.707108
    outer loop
      vertex 36.4809 8.70711 0
      vertex 35.9825 8 0.707107
      vertex 0 8.70711 0
    endloop
  endfacet
  facet normal -0.000166655 -0.707047 -0.707167
    outer loop
      vertex 35.9825 8 0.707107
      vertex 36.4809 8.70711 0
      vertex 36.1803 8.24429 0.462812
    endloop
  endfacet
  facet normal -0.00163381 0.707506 -0.706706
    outer loop
      vertex 37.9793 11.2929 0
      vertex 38.3226 12 0.707107
      vertex 38.2709 11.8653 0.572374
    endloop
  endfacet
  facet normal 0 0.70711 -0.707103
    outer loop
      vertex 0 12 0.707107
      vertex 37.9793 11.2929 0
      vertex 0 11.2929 0
    endloop
  endfacet
  facet normal 0 0.70711 -0.707103
    outer loop
      vertex 37.9793 11.2929 0
      vertex 0 12 0.707107
      vertex 38.3226 12 0.707107
    endloop
  endfacet
  facet normal 0 -0.70711 -0.707103
    outer loop
      vertex 0 12.7071 0
      vertex 38.3226 12 0.707107
      vertex 0 12 0.707107
    endloop
  endfacet
  facet normal 0 -0.70711 -0.707103
    outer loop
      vertex 38.3226 12 0.707107
      vertex 0 12.7071 0
      vertex 38.5941 12.7071 0
    endloop
  endfacet
  facet normal -0.00175014 0.707322 -0.706889
    outer loop
      vertex 39.4159 15.2929 0
      vertex 39.588 16 0.707107
      vertex 39.563 15.8418 0.548872
    endloop
  endfacet
  facet normal 0 0.70711 -0.707103
    outer loop
      vertex 0 16 0.707107
      vertex 39.4159 15.2929 0
      vertex 0 15.2929 0
    endloop
  endfacet
  facet normal 0 0.70711 -0.707103
    outer loop
      vertex 39.4159 15.2929 0
      vertex 0 16 0.707107
      vertex 39.588 16 0.707107
    endloop
  endfacet
  facet normal 0 -0.70711 -0.707103
    outer loop
      vertex 0 16.7071 0
      vertex 39.588 16 0.707107
      vertex 0 16 0.707107
    endloop
  endfacet
  facet normal 0 -0.70711 -0.707103
    outer loop
      vertex 39.588 16 0.707107
      vertex 0 16.7071 0
      vertex 39.7 16.7071 0
    endloop
  endfacet
  facet normal 0 0.70711 -0.707103
    outer loop
      vertex 0 20 0.707107
      vertex 39.9629 19.2929 0
      vertex 0 19.2929 0
    endloop
  endfacet
  facet normal 0 0.70711 -0.707103
    outer loop
      vertex 39.9629 19.2929 0
      vertex 0 20 0.707107
      vertex 40 20 0.707107
    endloop
  endfacet
  facet normal 0 -0.70711 -0.707103
    outer loop
      vertex 0 20 0.707107
      vertex 39.9629 20.7071 0
      vertex 40 20 0.707107
    endloop
  endfacet
  facet normal -0 -0.70711 -0.707103
    outer loop
      vertex 39.9629 20.7071 0
      vertex 0 20 0.707107
      vertex 0 20.7071 0
    endloop
  endfacet
  facet normal 0 0.70711 -0.707103
    outer loop
      vertex 0 23.2929 0
      vertex 39.588 24 0.707107
      vertex 39.7 23.2929 0
    endloop
  endfacet
  facet normal 0 0.70711 -0.707103
    outer loop
      vertex 39.588 24 0.707107
      vertex 0 23.2929 0
      vertex 0 24 0.707107
    endloop
  endfacet
  facet normal -0.00169781 -0.707316 -0.706896
    outer loop
      vertex 39.588 24 0.707107
      vertex 39.4159 24.7071 0
      vertex 39.563 24.1582 0.548873
    endloop
  endfacet
  facet normal 0 -0.70711 -0.707103
    outer loop
      vertex 0 24 0.707107
      vertex 39.4159 24.7071 0
      vertex 39.588 24 0.707107
    endloop
  endfacet
  facet normal -0 -0.70711 -0.707103
    outer loop
      vertex 39.4159 24.7071 0
      vertex 0 24 0.707107
      vertex 0 24.7071 0
    endloop
  endfacet
  facet normal 0 0.70711 -0.707103
    outer loop
      vertex 0 27.2929 0
      vertex 38.3226 28 0.707107
      vertex 38.5941 27.2929 0
    endloop
  endfacet
  facet normal 0 0.70711 -0.707103
    outer loop
      vertex 38.3226 28 0.707107
      vertex 0 27.2929 0
      vertex 0 28 0.707107
    endloop
  endfacet
  facet normal -0.00163381 -0.707506 -0.706706
    outer loop
      vertex 38.3226 28 0.707107
      vertex 37.9793 28.7071 0
      vertex 38.2709 28.1347 0.572374
    endloop
  endfacet
  facet normal 0 -0.70711 -0.707103
    outer loop
      vertex 0 28 0.707107
      vertex 37.9793 28.7071 0
      vertex 38.3226 28 0.707107
    endloop
  endfacet
  facet normal -0 -0.70711 -0.707103
    outer loop
      vertex 37.9793 28.7071 0
      vertex 0 28 0.707107
      vertex 0 28.7071 0
    endloop
  endfacet
  facet normal 0.000204847 0.707182 -0.707031
    outer loop
      vertex 36.4809 31.2929 0
      vertex 35.9825 32 0.707107
      vertex 36.1803 31.7557 0.462812
    endloop
  endfacet
  facet normal 0 0.70711 -0.707103
    outer loop
      vertex 0 31.2929 0
      vertex 35.9825 32 0.707107
      vertex 36.4809 31.2929 0
    endloop
  endfacet
  facet normal 0 0.70711 -0.707103
    outer loop
      vertex 35.9825 32 0.707107
      vertex 0 31.2929 0
      vertex 0 32 0.707107
    endloop
  endfacet
  facet normal 0 -0.70711 -0.707103
    outer loop
      vertex 0 32 0.707107
      vertex 35.4099 32.7071 0
      vertex 35.9825 32 0.707107
    endloop
  endfacet
  facet normal -0 -0.70711 -0.707103
    outer loop
      vertex 35.4099 32.7071 0
      vertex 0 32 0.707107
      vertex 0 32.7071 0
    endloop
  endfacet
  facet normal 0 0.70711 -0.707103
    outer loop
      vertex 0 35.2929 0
      vertex 31.9784 36 0.707107
      vertex 32.8516 35.2929 0
    endloop
  endfacet
  facet normal 0 0.70711 -0.707103
    outer loop
      vertex 31.9784 36 0.707107
      vertex 0 35.2929 0
      vertex 0 36 0.707107
    endloop
  endfacet
  facet normal -0.000660175 -0.707593 -0.70662
    outer loop
      vertex 31.9784 36 0.707107
      vertex 30.9446 36.7071 0
      vertex 31.7557 36.1803 0.526767
    endloop
  endfacet
  facet normal 0 -0.70711 -0.707103
    outer loop
      vertex 0 36 0.707107
      vertex 30.9446 36.7071 0
      vertex 31.9784 36 0.707107
    endloop
  endfacet
  facet normal -0 -0.70711 -0.707103
    outer loop
      vertex 30.9446 36.7071 0
      vertex 0 36 0.707107
      vertex 0 36.7071 0
    endloop
  endfacet
  facet normal -0.000114492 0.706838 -0.707375
    outer loop
      vertex 25.1661 39.2929 0
      vertex 22.0906 39.8904 0.597544
      vertex 24.1582 39.563 0.270058
    endloop
  endfacet
  facet normal 2.0876e-05 0.707187 -0.707027
    outer loop
      vertex 25.1661 39.2929 0
      vertex 20 40 0.707107
      vertex 22.0906 39.8904 0.597544
    endloop
  endfacet
  facet normal 0 0.70711 -0.707103
    outer loop
      vertex 0 39.2929 0
      vertex 20 40 0.707107
      vertex 25.1661 39.2929 0
    endloop
  endfacet
  facet normal 0 0.70711 -0.707103
    outer loop
      vertex 20 40 0.707107
      vertex 0 39.2929 0
      vertex 0 40 0.707107
    endloop
  endfacet
  facet normal 0 0 1
    outer loop
      vertex 39.8904 22.0906 2.4
      vertex 39.8904 17.9094 2.4
      vertex 40 20 2.4
    endloop
  endfacet
  facet normal 0 0 1
    outer loop
      vertex 39.563 24.1582 2.4
      vertex 39.8904 17.9094 2.4
      vertex 39.8904 22.0906 2.4
    endloop
  endfacet
  facet normal 0 0 1
    outer loop
      vertex 39.563 24.1582 2.4
      vertex 39.563 15.8418 2.4
      vertex 39.8904 17.9094 2.4
    endloop
  endfacet
  facet normal 0 0 1
    outer loop
      vertex 39.0211 26.1803 2.4
      vertex 39.563 15.8418 2.4
      vertex 39.563 24.1582 2.4
    endloop
  endfacet
  facet normal 0 0 1
    outer loop
      vertex 39.0211 26.1803 2.4
      vertex 39.0211 13.8197 2.4
      vertex 39.563 15.8418 2.4
    endloop
  endfacet
  facet normal 0 0 1
    outer loop
      vertex 38.2709 28.1347 2.4
      vertex 39.0211 13.8197 2.4
      vertex 39.0211 26.1803 2.4
    endloop
  endfacet
  facet normal 0 0 1
    outer loop
      vertex 38.2709 28.1347 2.4
      vertex 38.2709 11.8653 2.4
      vertex 39.0211 13.8197 2.4
    endloop
  endfacet
  facet normal 0 0 1
    outer loop
      vertex 37.3205 30 2.4
      vertex 38.2709 11.8653 2.4
      vertex 38.2709 28.1347 2.4
    endloop
  endfacet
  facet normal 0 0 1
    outer loop
      vertex 37.3205 30 2.4
      vertex 37.3205 10 2.4
      vertex 38.2709 11.8653 2.4
    endloop
  endfacet
  facet normal 0 0 1
    outer loop
      vertex 36.1803 31.7557 2.4
      vertex 37.3205 10 2.4
      vertex 37.3205 30 2.4
    endloop
  endfacet
  facet normal 0 0 1
    outer loop
      vertex 36.1803 31.7557 2.4
      vertex 36.1803 8.24429 2.4
      vertex 37.3205 10 2.4
    endloop
  endfacet
  facet normal 0 0 1
    outer loop
      vertex 34.8629 33.3826 2.4
      vertex 36.1803 8.24429 2.4
      vertex 36.1803 31.7557 2.4
    endloop
  endfacet
  facet normal 0 0 1
    outer loop
      vertex 34.8629 33.3826 2.4
      vertex 34.8629 6.61739 2.4
      vertex 36.1803 8.24429 2.4
    endloop
  endfacet
  facet normal 0 0 1
    outer loop
      vertex 33.3826 34.8629 2.4
      vertex 34.8629 6.61739 2.4
      vertex 34.8629 33.3826 2.4
    endloop
  endfacet
  facet normal 0 0 1
    outer loop
      vertex 33.3826 34.8629 2.4
      vertex 33.3826 5.1371 2.4
      vertex 34.8629 6.61739 2.4
    endloop
  endfacet
  facet normal 0 0 1
    outer loop
      vertex 31.7557 36.1803 2.4
      vertex 33.3826 5.1371 2.4
      vertex 33.3826 34.8629 2.4
    endloop
  endfacet
  facet normal 0 0 1
    outer loop
      vertex 31.7557 36.1803 2.4
      vertex 31.7557 3.81966 2.4
      vertex 33.3826 5.1371 2.4
    endloop
  endfacet
  facet normal 0 0 1
    outer loop
      vertex 30 37.3205 2.4
      vertex 31.7557 3.81966 2.4
      vertex 31.7557 36.1803 2.4
    endloop
  endfacet
  facet normal 0 0 1
    outer loop
      vertex 30 37.3205 2.4
      vertex 30 2.67949 2.4
      vertex 31.7557 3.81966 2.4
    endloop
  endfacet
  facet normal 0 0 1
    outer loop
      vertex 28.1347 38.2709 2.4
      vertex 30 2.67949 2.4
      vertex 30 37.3205 2.4
    endloop
  endfacet
  facet normal 0 0 1
    outer loop
      vertex 28.1347 38.2709 2.4
      vertex 28.1347 1.72909 2.4
      vertex 30 2.67949 2.4
    endloop
  endfacet
  facet normal 0 0 1
    outer loop
      vertex 26.1803 39.0211 2.4
      vertex 28.1347 1.72909 2.4
      vertex 28.1347 38.2709 2.4
    endloop
  endfacet
  facet normal 0 0 1
    outer loop
      vertex 26.1803 39.0211 2.4
      vertex 26.1803 0.978869 2.4
      vertex 28.1347 1.72909 2.4
    endloop
  endfacet
  facet normal 0 0 1
    outer loop
      vertex 24.1582 39.563 2.4
      vertex 26.1803 0.978869 2.4
      vertex 26.1803 39.0211 2.4
    endloop
  endfacet
  facet normal 0 0 1
    outer loop
      vertex 24.1582 39.563 2.4
      vertex 24.1582 0.437048 2.4
      vertex 26.1803 0.978869 2.4
    endloop
  endfacet
  facet normal 0 0 1
    outer loop
      vertex 22.0906 39.8904 2.4
      vertex 24.1582 0.437048 2.4
      vertex 24.1582 39.563 2.4
    endloop
  endfacet
  facet normal 0 0 1
    outer loop
      vertex 22.0906 39.8904 2.4
      vertex 22.0906 0.109562 2.4
      vertex 24.1582 0.437048 2.4
    endloop
  endfacet
  facet normal 0 0 1
    outer loop
      vertex 20 40 2.4
      vertex 22.0906 0.109562 2.4
      vertex 22.0906 39.8904 2.4
    endloop
  endfacet
  facet normal 0 0 1
    outer loop
      vertex 20 40 2.4
      vertex 20 0 2.4
      vertex 22.0906 0.109562 2.4
    endloop
  endfacet
  facet normal -0 0 1
    outer loop
      vertex 0 40 2.4
      vertex 20 0 2.4
      vertex 20 40 2.4
    endloop
  endfacet
  facet normal 0 0 1
    outer loop
      vertex 20 0 2.4
      vertex 0 40 2.4
      vertex 0 0 2.4
    endloop
  endfacet
  facet normal 0 0 -1
    outer loop
      vertex 39.9629 20.7071 0
      vertex 39.7 23.2929 0
      vertex 39.8904 22.0906 0
    endloop
  endfacet
  facet normal 0 0 -1
    outer loop
      vertex 0 20.7071 0
      vertex 39.7 23.2929 0
      vertex 39.9629 20.7071 0
    endloop
  endfacet
  facet normal -0 0 -1
    outer loop
      vertex 39.7 23.2929 0
      vertex 0 20.7071 0
      vertex 0 23.2929 0
    endloop
  endfacet
  facet normal 0 0 -1
    outer loop
      vertex 37.9793 28.7071 0
      vertex 36.4809 31.2929 0
      vertex 37.3205 30 0
    endloop
  endfacet
  facet normal 0 0 -1
    outer loop
      vertex 0 28.7071 0
      vertex 36.4809 31.2929 0
      vertex 37.9793 28.7071 0
    endloop
  endfacet
  facet normal -0 0 -1
    outer loop
      vertex 36.4809 31.2929 0
      vertex 0 28.7071 0
      vertex 0 31.2929 0
    endloop
  endfacet
  facet normal 0 0 -1
    outer loop
      vertex 28.1347 1.72909 0
      vertex 30.9446 3.29289 0
      vertex 30 2.67949 0
    endloop
  endfacet
  facet normal 0 0 -1
    outer loop
      vertex 25.1661 0.707107 0
      vertex 28.1347 1.72909 0
      vertex 26.1803 0.978869 0
    endloop
  endfacet
  facet normal -0 0 -1
    outer loop
      vertex 28.1347 1.72909 0
      vertex 25.1661 0.707107 0
      vertex 30.9446 3.29289 0
    endloop
  endfacet
  facet normal 0 0 -1
    outer loop
      vertex 0 3.29289 0
      vertex 25.1661 0.707107 0
      vertex 0 0.707107 0
    endloop
  endfacet
  facet normal 0 0 -1
    outer loop
      vertex 25.1661 0.707107 0
      vertex 0 3.29289 0
      vertex 30.9446 3.29289 0
    endloop
  endfacet
  facet normal 0 0 -1
    outer loop
      vertex 35.4099 32.7071 0
      vertex 33.3826 34.8629 0
      vertex 34.8629 33.3826 0
    endloop
  endfacet
  facet normal 0 0 -1
    outer loop
      vertex 35.4099 32.7071 0
      vertex 32.8516 35.2929 0
      vertex 33.3826 34.8629 0
    endloop
  endfacet
  facet normal 0 0 -1
    outer loop
      vertex 0 32.7071 0
      vertex 32.8516 35.2929 0
      vertex 35.4099 32.7071 0
    endloop
  endfacet
  facet normal -0 0 -1
    outer loop
      vertex 32.8516 35.2929 0
      vertex 0 32.7071 0
      vertex 0 35.2929 0
    endloop
  endfacet
  facet normal 0 0 -1
    outer loop
      vertex 39.4159 24.7071 0
      vertex 38.5941 27.2929 0
      vertex 39.0211 26.1803 0
    endloop
  endfacet
  facet normal 0 0 -1
    outer loop
      vertex 0 24.7071 0
      vertex 38.5941 27.2929 0
      vertex 39.4159 24.7071 0
    endloop
  endfacet
  facet normal -0 0 -1
    outer loop
      vertex 38.5941 27.2929 0
      vertex 0 24.7071 0
      vertex 0 27.2929 0
    endloop
  endfacet
  facet normal 0 0 -1
    outer loop
      vertex 30.9446 36.7071 0
      vertex 28.1347 38.2709 0
      vertex 30 37.3205 0
    endloop
  endfacet
  facet normal 0 0 -1
    outer loop
      vertex 25.1661 39.2929 0
      vertex 28.1347 38.2709 0
      vertex 30.9446 36.7071 0
    endloop
  endfacet
  facet normal 0 0 -1
    outer loop
      vertex 28.1347 38.2709 0
      vertex 25.1661 39.2929 0
      vertex 26.1803 39.0211 0
    endloop
  endfacet
  facet normal 0 0 -1
    outer loop
      vertex 0 36.7071 0
      vertex 25.1661 39.2929 0
      vertex 30.9446 36.7071 0
    endloop
  endfacet
  facet normal -0 0 -1
    outer loop
      vertex 25.1661 39.2929 0
      vertex 0 36.7071 0
      vertex 0 39.2929 0
    endloop
  endfacet
  facet normal 0 0 -1
    outer loop
      vertex 33.3826 5.1371 0
      vertex 35.4099 7.29289 0
      vertex 34.8629 6.61739 0
    endloop
  endfacet
  facet normal 0 0 -1
    outer loop
      vertex 32.8516 4.70711 0
      vertex 35.4099 7.29289 0
      vertex 33.3826 5.1371 0
    endloop
  endfacet
  facet normal 0 0 -1
    outer loop
      vertex 0 7.29289 0
      vertex 32.8516 4.70711 0
      vertex 0 4.70711 0
    endloop
  endfacet
  facet normal 0 0 -1
    outer loop
      vertex 32.8516 4.70711 0
      vertex 0 7.29289 0
      vertex 35.4099 7.29289 0
    endloop
  endfacet
  facet normal 0 0 -1
    outer loop
      vertex 38.5941 12.7071 0
      vertex 39.4159 15.2929 0
      vertex 39.0211 13.8197 0
    endloop
  endfacet
  facet normal 0 0 -1
    outer loop
      vertex 0 15.2929 0
      vertex 38.5941 12.7071 0
      vertex 0 12.7071 0
    endloop
  endfacet
  facet normal 0 0 -1
    outer loop
      vertex 38.5941 12.7071 0
      vertex 0 15.2929 0
      vertex 39.4159 15.2929 0
    endloop
  endfacet
  facet normal 0 0 -1
    outer loop
      vertex 39.7 16.7071 0
      vertex 39.9629 19.2929 0
      vertex 39.8904 17.9094 0
    endloop
  endfacet
  facet normal 0 0 -1
    outer loop
      vertex 0 19.2929 0
      vertex 39.7 16.7071 0
      vertex 0 16.7071 0
    endloop
  endfacet
  facet normal 0 0 -1
    outer loop
      vertex 39.7 16.7071 0
      vertex 0 19.2929 0
      vertex 39.9629 19.2929 0
    endloop
  endfacet
  facet normal 0 0 -1
    outer loop
      vertex 36.4809 8.70711 0
      vertex 37.9793 11.2929 0
      vertex 37.3205 10 0
    endloop
  endfacet
  facet normal 0 0 -1
    outer loop
      vertex 0 11.2929 0
      vertex 36.4809 8.70711 0
      vertex 0 8.70711 0
    endloop
  endfacet
  facet normal 0 0 -1
    outer loop
      vertex 36.4809 8.70711 0
      vertex 0 11.2929 0
      vertex 37.9793 11.2929 0
    endloop
  endfacet
  facet normal 0 -1 0
    outer loop
      vertex 0 0 0.707107
      vertex 20 0 2.4
      vertex 0 0 2.4
    endloop
  endfacet
  facet normal 0 -1 -0
    outer loop
      vertex 20 0 2.4
      vertex 0 0 0.707107
      vertex 20 0 0.707107
    endloop
  endfacet
  facet normal 0 1 -0
    outer loop
      vertex 20 40 0.707107
      vertex 0 40 2.4
      vertex 20 40 2.4
    endloop
  endfacet
  facet normal 0 1 0
    outer loop
      vertex 0 40 2.4
      vertex 20 40 0.707107
      vertex 0 40 0.707107
    endloop
  endfacet
  facet normal 0.99863 0.0523315 0
    outer loop
      vertex 39.8904 22.0906 2.4
      vertex 39.9629 20.7071 0
      vertex 39.8904 22.0906 0
    endloop
  endfacet
  facet normal 0.998629 0.0523532 -0
    outer loop
      vertex 40 20 0.707107
      vertex 39.8904 22.0906 2.4
      vertex 40 20 2.4
    endloop
  endfacet
  facet normal 0.998628 0.0523723 -2.35536e-05
    outer loop
      vertex 39.8904 22.0906 2.4
      vertex 40 20 0.707107
      vertex 39.9629 20.7071 0
    endloop
  endfacet
  facet normal 0.0523351 -0.99863 0
    outer loop
      vertex 20 0 0.707107
      vertex 22.0906 0.109562 2.4
      vertex 20 0 2.4
    endloop
  endfacet
  facet normal 0.0523351 -0.99863 0
    outer loop
      vertex 22.0906 0.109562 2.4
      vertex 20 0 0.707107
      vertex 22.0906 0.109562 0.597545
    endloop
  endfacet
  facet normal 0.62931 0.777155 1.54942e-05
    outer loop
      vertex 33.3826 34.8629 2.4
      vertex 31.9784 36 0.707107
      vertex 31.7557 36.1803 2.4
    endloop
  endfacet
  facet normal 0.629325 0.777143 0
    outer loop
      vertex 32.8516 35.2929 0
      vertex 33.3826 34.8629 2.4
      vertex 33.3826 34.8629 0
    endloop
  endfacet
  facet normal 0.629319 0.777147 1.85548e-06
    outer loop
      vertex 33.3826 34.8629 2.4
      vertex 32.8516 35.2929 0
      vertex 31.9784 36 0.707107
    endloop
  endfacet
  facet normal 0.629238 0.777212 0
    outer loop
      vertex 31.7557 36.1803 2.4
      vertex 31.9784 36 0.707107
      vertex 31.7557 36.1803 0.526767
    endloop
  endfacet
  facet normal 0.838664 -0.544649 0
    outer loop
      vertex 36.1803 8.24429 0.462812
      vertex 37.3205 10 0
      vertex 37.3205 10 2.4
    endloop
  endfacet
  facet normal 0.838664 -0.544649 0
    outer loop
      vertex 36.1803 8.24429 0.462812
      vertex 37.3205 10 2.4
      vertex 36.1803 8.24429 2.4
    endloop
  endfacet
  facet normal 0.838674 -0.544633 8.27819e-05
    outer loop
      vertex 37.3205 10 0
      vertex 36.1803 8.24429 0.462812
      vertex 36.4809 8.70711 0
    endloop
  endfacet
  facet normal 0.890997 0.454009 0
    outer loop
      vertex 37.3205 30 2.4
      vertex 37.9793 28.7071 0
      vertex 37.3205 30 0
    endloop
  endfacet
  facet normal 0.89101 0.453984 -0
    outer loop
      vertex 38.2709 28.1347 0.572374
      vertex 37.3205 30 2.4
      vertex 38.2709 28.1347 2.4
    endloop
  endfacet
  facet normal 0.891025 0.453955 3.68755e-05
    outer loop
      vertex 37.3205 30 2.4
      vertex 38.2709 28.1347 0.572374
      vertex 37.9793 28.7071 0
    endloop
  endfacet
  facet normal 0.358358 0.933584 -0
    outer loop
      vertex 28.1347 38.2709 0
      vertex 26.1803 39.0211 2.4
      vertex 28.1347 38.2709 2.4
    endloop
  endfacet
  facet normal 0.358358 0.933584 0
    outer loop
      vertex 26.1803 39.0211 2.4
      vertex 28.1347 38.2709 0
      vertex 26.1803 39.0211 0
    endloop
  endfacet
  facet normal 0.544651 0.838663 -0
    outer loop
      vertex 31.7557 36.1803 0.526767
      vertex 30 37.3205 2.4
      vertex 31.7557 36.1803 2.4
    endloop
  endfacet
  facet normal 0.544673 0.838648 2.96931e-05
    outer loop
      vertex 30.9446 36.7071 0
      vertex 30 37.3205 2.4
      vertex 31.7557 36.1803 0.526767
    endloop
  endfacet
  facet normal 0.54462 0.838683 0
    outer loop
      vertex 30 37.3205 2.4
      vertex 30.9446 36.7071 0
      vertex 30 37.3205 0
    endloop
  endfacet
  facet normal 0.987692 -0.156414 0
    outer loop
      vertex 39.8904 17.9094 2.4
      vertex 39.7 16.7071 0
      vertex 39.8904 17.9094 0
    endloop
  endfacet
  facet normal 0.987689 -0.156433 9.98858e-06
    outer loop
      vertex 39.8904 17.9094 2.4
      vertex 39.588 16 0.707107
      vertex 39.7 16.7071 0
    endloop
  endfacet
  facet normal 0.987694 -0.156399 -2.95386e-05
    outer loop
      vertex 39.563 15.8418 2.4
      vertex 39.588 16 0.707107
      vertex 39.8904 17.9094 2.4
    endloop
  endfacet
  facet normal 0.987743 -0.156091 0
    outer loop
      vertex 39.588 16 0.707107
      vertex 39.563 15.8418 2.4
      vertex 39.563 15.8418 0.548872
    endloop
  endfacet
  facet normal 0.965916 0.258854 0
    outer loop
      vertex 39.0211 26.1803 2.4
      vertex 39.4159 24.7071 0
      vertex 39.0211 26.1803 0
    endloop
  endfacet
  facet normal 0.965916 0.258855 -0
    outer loop
      vertex 39.563 24.1582 0.548873
      vertex 39.0211 26.1803 2.4
      vertex 39.563 24.1582 2.4
    endloop
  endfacet
  facet normal 0.965916 0.258855 -9.08687e-07
    outer loop
      vertex 39.0211 26.1803 2.4
      vertex 39.563 24.1582 0.548873
      vertex 39.4159 24.7071 0
    endloop
  endfacet
  facet normal 0.987743 0.156091 0
    outer loop
      vertex 39.563 24.1582 2.4
      vertex 39.588 24 0.707107
      vertex 39.563 24.1582 0.548873
    endloop
  endfacet
  facet normal 0.987694 0.156399 -2.95386e-05
    outer loop
      vertex 39.8904 22.0906 2.4
      vertex 39.588 24 0.707107
      vertex 39.563 24.1582 2.4
    endloop
  endfacet
  facet normal 0.987689 0.156433 9.98858e-06
    outer loop
      vertex 39.588 24 0.707107
      vertex 39.8904 22.0906 2.4
      vertex 39.7 23.2929 0
    endloop
  endfacet
  facet normal 0.987692 0.156414 0
    outer loop
      vertex 39.7 23.2929 0
      vertex 39.8904 22.0906 2.4
      vertex 39.8904 22.0906 0
    endloop
  endfacet
  facet normal 0.933595 0.358329 0
    outer loop
      vertex 38.2709 28.1347 2.4
      vertex 38.3226 28 0.707107
      vertex 38.2709 28.1347 0.572374
    endloop
  endfacet
  facet normal 0.933584 0.358358 -2.66933e-06
    outer loop
      vertex 39.0211 26.1803 2.4
      vertex 38.3226 28 0.707107
      vertex 38.2709 28.1347 2.4
    endloop
  endfacet
  facet normal 0.933567 0.358403 5.23207e-05
    outer loop
      vertex 38.3226 28 0.707107
      vertex 39.0211 26.1803 2.4
      vertex 38.5941 27.2929 0
    endloop
  endfacet
  facet normal 0.933605 0.358304 0
    outer loop
      vertex 38.5941 27.2929 0
      vertex 39.0211 26.1803 2.4
      vertex 39.0211 26.1803 0
    endloop
  endfacet
  facet normal 0.777148 0.629318 0
    outer loop
      vertex 35.9825 32 0.707107
      vertex 34.8629 33.3826 0
      vertex 34.8629 33.3826 2.4
    endloop
  endfacet
  facet normal 0.777151 0.629314 -1.23654e-05
    outer loop
      vertex 34.8629 33.3826 0
      vertex 35.9825 32 0.707107
      vertex 35.4099 32.7071 0
    endloop
  endfacet
  facet normal 0.777155 0.62931 1.1287e-05
    outer loop
      vertex 36.1803 31.7557 2.4
      vertex 35.9825 32 0.707107
      vertex 34.8629 33.3826 2.4
    endloop
  endfacet
  facet normal 0.777193 0.629262 0
    outer loop
      vertex 35.9825 32 0.707107
      vertex 36.1803 31.7557 2.4
      vertex 36.1803 31.7557 0.462812
    endloop
  endfacet
  facet normal 0.707107 0.707107 0
    outer loop
      vertex 34.8629 33.3826 2.4
      vertex 33.3826 34.8629 0
      vertex 33.3826 34.8629 2.4
    endloop
  endfacet
  facet normal 0.707107 0.707107 0
    outer loop
      vertex 33.3826 34.8629 0
      vertex 34.8629 33.3826 2.4
      vertex 34.8629 33.3826 0
    endloop
  endfacet
  facet normal 0.838663 0.544651 0
    outer loop
      vertex 37.3205 30 2.4
      vertex 36.1803 31.7557 0.462812
      vertex 36.1803 31.7557 2.4
    endloop
  endfacet
  facet normal 0.838663 0.544651 -0
    outer loop
      vertex 37.3205 30 0
      vertex 36.1803 31.7557 0.462812
      vertex 37.3205 30 2.4
    endloop
  endfacet
  facet normal 0.838676 0.54463 0.00011053
    outer loop
      vertex 36.1803 31.7557 0.462812
      vertex 37.3205 30 0
      vertex 36.4809 31.2929 0
    endloop
  endfacet
  facet normal 0.156399 0.987694 0
    outer loop
      vertex 24.1582 39.563 2.4
      vertex 22.0906 39.8904 0.597544
      vertex 22.0906 39.8904 2.4
    endloop
  endfacet
  facet normal 0.156399 0.987694 0
    outer loop
      vertex 22.0906 39.8904 0.597544
      vertex 24.1582 39.563 2.4
      vertex 24.1582 39.563 0.270058
    endloop
  endfacet
  facet normal 0.258855 0.965916 2.34859e-06
    outer loop
      vertex 25.1661 39.2929 0
      vertex 24.1582 39.563 2.4
      vertex 26.1803 39.0211 2.4
    endloop
  endfacet
  facet normal 0.25886 0.965915 0
    outer loop
      vertex 25.1661 39.2929 0
      vertex 26.1803 39.0211 2.4
      vertex 26.1803 39.0211 0
    endloop
  endfacet
  facet normal 0.258849 0.965918 0
    outer loop
      vertex 24.1582 39.563 2.4
      vertex 25.1661 39.2929 0
      vertex 24.1582 39.563 0.270058
    endloop
  endfacet
  facet normal 0.0523532 0.998629 0
    outer loop
      vertex 22.0906 39.8904 2.4
      vertex 20 40 0.707107
      vertex 20 40 2.4
    endloop
  endfacet
  facet normal 0.0523532 0.998629 0
    outer loop
      vertex 20 40 0.707107
      vertex 22.0906 39.8904 2.4
      vertex 22.0906 39.8904 0.597544
    endloop
  endfacet
  facet normal 0.453984 0.89101 -0
    outer loop
      vertex 30 37.3205 0
      vertex 28.1347 38.2709 2.4
      vertex 30 37.3205 2.4
    endloop
  endfacet
  facet normal 0.453984 0.89101 0
    outer loop
      vertex 28.1347 38.2709 2.4
      vertex 30 37.3205 0
      vertex 28.1347 38.2709 0
    endloop
  endfacet
  facet normal 0.998629 -0.0523532 0
    outer loop
      vertex 39.8904 17.9094 2.4
      vertex 40 20 0.707107
      vertex 40 20 2.4
    endloop
  endfacet
  facet normal 0.998628 -0.0523723 -2.35536e-05
    outer loop
      vertex 40 20 0.707107
      vertex 39.8904 17.9094 2.4
      vertex 39.9629 19.2929 0
    endloop
  endfacet
  facet normal 0.99863 -0.0523315 0
    outer loop
      vertex 39.9629 19.2929 0
      vertex 39.8904 17.9094 2.4
      vertex 39.8904 17.9094 0
    endloop
  endfacet
  facet normal 0.156439 -0.987688 0
    outer loop
      vertex 22.0906 0.109562 0.597545
      vertex 24.1582 0.437048 2.4
      vertex 22.0906 0.109562 2.4
    endloop
  endfacet
  facet normal 0.156439 -0.987688 0
    outer loop
      vertex 24.1582 0.437048 2.4
      vertex 22.0906 0.109562 0.597545
      vertex 24.1582 0.437048 0.270059
    endloop
  endfacet
  facet normal 0.358367 -0.933581 0
    outer loop
      vertex 26.1803 0.978869 0
      vertex 28.1347 1.72909 2.4
      vertex 26.1803 0.978869 2.4
    endloop
  endfacet
  facet normal 0.358367 -0.933581 0
    outer loop
      vertex 28.1347 1.72909 2.4
      vertex 26.1803 0.978869 0
      vertex 28.1347 1.72909 0
    endloop
  endfacet
  facet normal 0.707104 -0.707109 0
    outer loop
      vertex 33.3826 5.1371 0
      vertex 34.8629 6.61739 2.4
      vertex 33.3826 5.1371 2.4
    endloop
  endfacet
  facet normal 0.707104 -0.707109 0
    outer loop
      vertex 34.8629 6.61739 2.4
      vertex 33.3826 5.1371 0
      vertex 34.8629 6.61739 0
    endloop
  endfacet
  facet normal 0.544641 -0.838669 0
    outer loop
      vertex 30 2.67949 2.4
      vertex 31.7557 3.81966 0.526766
      vertex 31.7557 3.81966 2.4
    endloop
  endfacet
  facet normal 0.54462 -0.838683 0
    outer loop
      vertex 30.9446 3.29289 0
      vertex 30 2.67949 2.4
      vertex 30 2.67949 0
    endloop
  endfacet
  facet normal 0.544656 -0.83866 1.99702e-05
    outer loop
      vertex 30 2.67949 2.4
      vertex 30.9446 3.29289 0
      vertex 31.7557 3.81966 0.526766
    endloop
  endfacet
  facet normal 0.965916 -0.258855 0
    outer loop
      vertex 39.0211 13.8197 2.4
      vertex 39.563 15.8418 0.548872
      vertex 39.563 15.8418 2.4
    endloop
  endfacet
  facet normal 0.965916 -0.258855 -9.08688e-07
    outer loop
      vertex 39.563 15.8418 0.548872
      vertex 39.0211 13.8197 2.4
      vertex 39.4159 15.2929 0
    endloop
  endfacet
  facet normal 0.965916 -0.258854 0
    outer loop
      vertex 39.4159 15.2929 0
      vertex 39.0211 13.8197 2.4
      vertex 39.0211 13.8197 0
    endloop
  endfacet
  facet normal 0.258813 -0.965928 0
    outer loop
      vertex 25.1661 0.707107 0
      vertex 24.1582 0.437048 2.4
      vertex 24.1582 0.437048 0.270059
    endloop
  endfacet
  facet normal 0.258819 -0.965926 3.00185e-06
    outer loop
      vertex 24.1582 0.437048 2.4
      vertex 25.1661 0.707107 0
      vertex 26.1803 0.978869 2.4
    endloop
  endfacet
  facet normal 0.258826 -0.965924 0
    outer loop
      vertex 26.1803 0.978869 2.4
      vertex 25.1661 0.707107 0
      vertex 26.1803 0.978869 0
    endloop
  endfacet
  facet normal 0.453984 -0.89101 0
    outer loop
      vertex 28.1347 1.72909 0
      vertex 30 2.67949 2.4
      vertex 28.1347 1.72909 2.4
    endloop
  endfacet
  facet normal 0.453984 -0.89101 0
    outer loop
      vertex 30 2.67949 2.4
      vertex 28.1347 1.72909 0
      vertex 30 2.67949 0
    endloop
  endfacet
  facet normal 0.77718 -0.629278 0
    outer loop
      vertex 36.1803 8.24429 2.4
      vertex 35.9825 8 0.707107
      vertex 36.1803 8.24429 0.462812
    endloop
  endfacet
  facet normal 0.777155 -0.62931 7.5696e-06
    outer loop
      vertex 34.8629 6.61739 2.4
      vertex 35.9825 8 0.707107
      vertex 36.1803 8.24429 2.4
    endloop
  endfacet
  facet normal 0.77715 -0.629315 0
    outer loop
      vertex 34.8629 6.61739 0
      vertex 35.9825 8 0.707107
      vertex 34.8629 6.61739 2.4
    endloop
  endfacet
  facet normal 0.777151 -0.629314 -3.46557e-06
    outer loop
      vertex 35.9825 8 0.707107
      vertex 34.8629 6.61739 0
      vertex 35.4099 7.29289 0
    endloop
  endfacet
  facet normal 0.629321 -0.777145 -3.54971e-07
    outer loop
      vertex 31.7557 3.81966 2.4
      vertex 31.9784 4 0.707107
      vertex 33.3826 5.1371 2.4
    endloop
  endfacet
  facet normal 0.629323 -0.777144 0
    outer loop
      vertex 31.9784 4 0.707107
      vertex 31.7557 3.81966 2.4
      vertex 31.7557 3.81966 0.526766
    endloop
  endfacet
  facet normal 0.629323 -0.777144 -2.56055e-06
    outer loop
      vertex 32.8516 4.70711 0
      vertex 33.3826 5.1371 2.4
      vertex 31.9784 4 0.707107
    endloop
  endfacet
  facet normal 0.629316 -0.77715 0
    outer loop
      vertex 33.3826 5.1371 2.4
      vertex 32.8516 4.70711 0
      vertex 33.3826 5.1371 0
    endloop
  endfacet
  facet normal 0.89101 -0.453984 0
    outer loop
      vertex 37.3205 10 2.4
      vertex 38.2709 11.8653 0.572374
      vertex 38.2709 11.8653 2.4
    endloop
  endfacet
  facet normal 0.891025 -0.453955 3.68755e-05
    outer loop
      vertex 38.2709 11.8653 0.572374
      vertex 37.3205 10 2.4
      vertex 37.9793 11.2929 0
    endloop
  endfacet
  facet normal 0.890997 -0.454009 0
    outer loop
      vertex 37.9793 11.2929 0
      vertex 37.3205 10 2.4
      vertex 37.3205 10 0
    endloop
  endfacet
  facet normal 0.933605 -0.358304 0
    outer loop
      vertex 39.0211 13.8197 2.4
      vertex 38.5941 12.7071 0
      vertex 39.0211 13.8197 0
    endloop
  endfacet
  facet normal 0.933567 -0.358403 5.23207e-05
    outer loop
      vertex 39.0211 13.8197 2.4
      vertex 38.3226 12 0.707107
      vertex 38.5941 12.7071 0
    endloop
  endfacet
  facet normal 0.933584 -0.358358 -2.66933e-06
    outer loop
      vertex 38.2709 11.8653 2.4
      vertex 38.3226 12 0.707107
      vertex 39.0211 13.8197 2.4
    endloop
  endfacet
  facet normal 0.933595 -0.358329 0
    outer loop
      vertex 38.3226 12 0.707107
      vertex 38.2709 11.8653 2.4
      vertex 38.2709 11.8653 0.572374
    endloop
  endfacet
endsolid OpenSCAD_Model
