solid OpenSCAD_Model
  facet normal 0 0 -1
    outer loop
      vertex 66 0 0
      vertex 86 10 0
      vertex 86 0 0
    endloop
  endfacet
  facet normal -0 0 -1
    outer loop
      vertex 86 10 0
      vertex 66 0 0
      vertex 66 20 0
    endloop
  endfacet
  facet normal -1 0 0
    outer loop
      vertex 66 20 0
      vertex 66 10 10
      vertex 66 20 10
    endloop
  endfacet
  facet normal -1 0 0
    outer loop
      vertex 66 0 0
      vertex 66 10 10
      vertex 66 20 0
    endloop
  endfacet
  facet normal -1 0 0
    outer loop
      vertex 66 0 20
      vertex 66 10 10
      vertex 66 0 0
    endloop
  endfacet
  facet normal -1 0 0
    outer loop
      vertex 66 10 10
      vertex 66 0 20
      vertex 66 10 20
    endloop
  endfacet
  facet normal 0 -1 0
    outer loop
      vertex 66 0 0
      vertex 86 0 20
      vertex 66 0 20
    endloop
  endfacet
  facet normal 0 -1 -0
    outer loop
      vertex 86 0 20
      vertex 66 0 0
      vertex 86 0 0
    endloop
  endfacet
  facet normal 0 0 1
    outer loop
      vertex 66 20 10
      vertex 66 10 10
      vertex 86 10 10
    endloop
  endfacet
  facet normal 0.447214 0.894427 -0
    outer loop
      vertex 86 10 0
      vertex 66 20 10
      vertex 86 10 10
    endloop
  endfacet
  facet normal 0.447214 0.894427 0
    outer loop
      vertex 66 20 10
      vertex 86 10 0
      vertex 66 20 0
    endloop
  endfacet
  facet normal 1 -0 0
    outer loop
      vertex 86 0 20
      vertex 86 10 10
      vertex 86 10 20
    endloop
  endfacet
  facet normal 1 0 0
    outer loop
      vertex 86 0 0
      vertex 86 10 10
      vertex 86 0 20
    endloop
  endfacet
  facet normal 1 0 0
    outer loop
      vertex 86 10 10
      vertex 86 0 0
      vertex 86 10 0
    endloop
  endfacet
  facet normal -0 0 1
    outer loop
      vertex 66 10 20
      vertex 86 0 20
      vertex 86 10 20
    endloop
  endfacet
  facet normal 0 0 1
    outer loop
      vertex 86 0 20
      vertex 66 10 20
      vertex 66 0 20
    endloop
  endfacet
  facet normal 0 1 -0
    outer loop
      vertex 86 10 10
      vertex 66 10 20
      vertex 86 10 20
    endloop
  endfacet
  facet normal 0 1 0
    outer loop
      vertex 66 10 20
      vertex 86 10 10
      vertex 66 10 10
    endloop
  endfacet
  facet normal -1 0 0
    outer loop
      vertex 22 22 0
      vertex 22 42 10
      vertex 22 42 0
    endloop
  endfacet
  facet normal -1 -0 0
    outer loop
      vertex 22 42 10
      vertex 22 22 0
      vertex 22 22 10
    endloop
  endfacet
  facet normal 0 0 1
    outer loop
      vertex 32 42 10
      vertex 22 42 10
      vertex 32 32 10
    endloop
  endfacet
  facet normal 0 0 1
    outer loop
      vertex 42 32 10
      vertex 52 42 10
      vertex 42 42 10
    endloop
  endfacet
  facet normal 0 0 1
    outer loop
      vertex 52 42 10
      vertex 42 32 10
      vertex 52 22 10
    endloop
  endfacet
  facet normal -0 0 1
    outer loop
      vertex 32 32 10
      vertex 52 22 10
      vertex 42 32 10
    endloop
  endfacet
  facet normal 0 0 1
    outer loop
      vertex 32 32 10
      vertex 22 22 10
      vertex 52 22 10
    endloop
  endfacet
  facet normal 0 0 1
    outer loop
      vertex 22 22 10
      vertex 32 32 10
      vertex 22 42 10
    endloop
  endfacet
  facet normal 1 -0 0
    outer loop
      vertex 52 22 10
      vertex 52 42 0
      vertex 52 42 10
    endloop
  endfacet
  facet normal 1 0 0
    outer loop
      vertex 52 42 0
      vertex 52 22 10
      vertex 52 22 0
    endloop
  endfacet
  facet normal 0 1 -0
    outer loop
      vertex 52 42 0
      vertex 42 42 10
      vertex 52 42 10
    endloop
  endfacet
  facet normal 0 1 0
    outer loop
      vertex 42 42 10
      vertex 52 42 0
      vertex 42 42 0
    endloop
  endfacet
  facet normal 0 1 -0
    outer loop
      vertex 32 42 0
      vertex 22 42 10
      vertex 32 42 10
    endloop
  endfacet
  facet normal 0 1 0
    outer loop
      vertex 22 42 10
      vertex 32 42 0
      vertex 22 42 0
    endloop
  endfacet
  facet normal 0 0 -1
    outer loop
      vertex 52 22 0
      vertex 42 32 0
      vertex 52 42 0
    endloop
  endfacet
  facet normal 0 0 -1
    outer loop
      vertex 52 22 0
      vertex 32 32 0
      vertex 42 32 0
    endloop
  endfacet
  facet normal 0 0 -1
    outer loop
      vertex 22 22 0
      vertex 32 32 0
      vertex 52 22 0
    endloop
  endfacet
  facet normal 0 0 -1
    outer loop
      vertex 22 42 0
      vertex 32 32 0
      vertex 22 22 0
    endloop
  endfacet
  facet normal 0 0 -1
    outer loop
      vertex 32 32 0
      vertex 22 42 0
      vertex 32 42 0
    endloop
  endfacet
  facet normal -0 0 -1
    outer loop
      vertex 52 42 0
      vertex 42 32 0
      vertex 42 42 0
    endloop
  endfacet
  facet normal 0 -1 0
    outer loop
      vertex 22 22 0
      vertex 52 22 10
      vertex 22 22 10
    endloop
  endfacet
  facet normal 0 -1 -0
    outer loop
      vertex 52 22 10
      vertex 22 22 0
      vertex 52 22 0
    endloop
  endfacet
  facet normal 1 -0 0
    outer loop
      vertex 32 32 10
      vertex 32 42 0
      vertex 32 42 10
    endloop
  endfacet
  facet normal 1 0 0
    outer loop
      vertex 32 42 0
      vertex 32 32 10
      vertex 32 32 0
    endloop
  endfacet
  facet normal -1 0 0
    outer loop
      vertex 42 32 0
      vertex 42 42 10
      vertex 42 42 0
    endloop
  endfacet
  facet normal -1 -0 0
    outer loop
      vertex 42 42 10
      vertex 42 32 0
      vertex 42 32 10
    endloop
  endfacet
  facet normal 0 1 -0
    outer loop
      vertex 42 32 0
      vertex 32 32 10
      vertex 42 32 10
    endloop
  endfacet
  facet normal 0 1 0
    outer loop
      vertex 32 32 10
      vertex 42 32 0
      vertex 32 32 0
    endloop
  endfacet
  facet normal -1 0 0
    outer loop
      vertex 55 22 0
      vertex 55 52 10
      vertex 55 52 0
    endloop
  endfacet
  facet normal -1 -0 0
    outer loop
      vertex 55 52 10
      vertex 55 22 0
      vertex 55 22 10
    endloop
  endfacet
  facet normal 0 0 1
    outer loop
      vertex 85 52 10
      vertex 75 42 10
      vertex 85 22 10
    endloop
  endfacet
  facet normal 0 0 1
    outer loop
      vertex 85 52 10
      vertex 65 42 10
      vertex 75 42 10
    endloop
  endfacet
  facet normal 0 0 1
    outer loop
      vertex 65 42 10
      vertex 55 52 10
      vertex 65 32 10
    endloop
  endfacet
  facet normal -0 0 1
    outer loop
      vertex 55 52 10
      vertex 65 42 10
      vertex 85 52 10
    endloop
  endfacet
  facet normal -0 0 1
    outer loop
      vertex 75 32 10
      vertex 85 22 10
      vertex 75 42 10
    endloop
  endfacet
  facet normal -0 0 1
    outer loop
      vertex 65 32 10
      vertex 85 22 10
      vertex 75 32 10
    endloop
  endfacet
  facet normal 0 0 1
    outer loop
      vertex 65 32 10
      vertex 55 22 10
      vertex 85 22 10
    endloop
  endfacet
  facet normal 0 0 1
    outer loop
      vertex 55 22 10
      vertex 65 32 10
      vertex 55 52 10
    endloop
  endfacet
  facet normal 1 -0 0
    outer loop
      vertex 85 22 10
      vertex 85 52 0
      vertex 85 52 10
    endloop
  endfacet
  facet normal 1 0 0
    outer loop
      vertex 85 52 0
      vertex 85 22 10
      vertex 85 22 0
    endloop
  endfacet
  facet normal 0 0 -1
    outer loop
      vertex 85 22 0
      vertex 75 32 0
      vertex 85 52 0
    endloop
  endfacet
  facet normal 0 0 -1
    outer loop
      vertex 85 22 0
      vertex 65 32 0
      vertex 75 32 0
    endloop
  endfacet
  facet normal -0 0 -1
    outer loop
      vertex 65 32 0
      vertex 55 22 0
      vertex 65 42 0
    endloop
  endfacet
  facet normal 0 0 -1
    outer loop
      vertex 55 22 0
      vertex 65 32 0
      vertex 85 22 0
    endloop
  endfacet
  facet normal 0 0 -1
    outer loop
      vertex 75 42 0
      vertex 85 52 0
      vertex 75 32 0
    endloop
  endfacet
  facet normal 0 0 -1
    outer loop
      vertex 65 42 0
      vertex 85 52 0
      vertex 75 42 0
    endloop
  endfacet
  facet normal 0 0 -1
    outer loop
      vertex 65 42 0
      vertex 55 52 0
      vertex 85 52 0
    endloop
  endfacet
  facet normal 0 0 -1
    outer loop
      vertex 55 52 0
      vertex 65 42 0
      vertex 55 22 0
    endloop
  endfacet
  facet normal 0 -1 0
    outer loop
      vertex 55 22 0
      vertex 85 22 10
      vertex 55 22 10
    endloop
  endfacet
  facet normal 0 -1 -0
    outer loop
      vertex 85 22 10
      vertex 55 22 0
      vertex 85 22 0
    endloop
  endfacet
  facet normal 0 1 -0
    outer loop
      vertex 85 52 0
      vertex 55 52 10
      vertex 85 52 10
    endloop
  endfacet
  facet normal 0 1 0
    outer loop
      vertex 55 52 10
      vertex 85 52 0
      vertex 55 52 0
    endloop
  endfacet
  facet normal 1 -0 0
    outer loop
      vertex 65 32 10
      vertex 65 42 0
      vertex 65 42 10
    endloop
  endfacet
  facet normal 1 0 0
    outer loop
      vertex 65 42 0
      vertex 65 32 10
      vertex 65 32 0
    endloop
  endfacet
  facet normal -1 0 0
    outer loop
      vertex 75 32 0
      vertex 75 42 10
      vertex 75 42 0
    endloop
  endfacet
  facet normal -1 -0 0
    outer loop
      vertex 75 42 10
      vertex 75 32 0
      vertex 75 32 10
    endloop
  endfacet
  facet normal 0 -1 0
    outer loop
      vertex 65 42 0
      vertex 75 42 10
      vertex 65 42 10
    endloop
  endfacet
  facet normal 0 -1 -0
    outer loop
      vertex 75 42 10
      vertex 65 42 0
      vertex 75 42 0
    endloop
  endfacet
  facet normal 0 1 -0
    outer loop
      vertex 75 32 0
      vertex 65 32 10
      vertex 75 32 10
    endloop
  endfacet
  facet normal 0 1 0
    outer loop
      vertex 65 32 10
      vertex 75 32 0
      vertex 65 32 0
    endloop
  endfacet
  facet normal 0 0 -1
    outer loop
      vertex 20 0 0
      vertex 0 0 0
      vertex 0 20 0
    endloop
  endfacet
  facet normal 0 -1 0
    outer loop
      vertex 0 0 0
      vertex 20 0 20
      vertex 0 0 20
    endloop
  endfacet
  facet normal 0 -1 -0
    outer loop
      vertex 20 0 20
      vertex 0 0 0
      vertex 20 0 0
    endloop
  endfacet
  facet normal 0.707107 0.707107 0
    outer loop
      vertex 20 0 20
      vertex 0 20 0
      vertex 0 20 20
    endloop
  endfacet
  facet normal 0.707107 0.707107 0
    outer loop
      vertex 0 20 0
      vertex 20 0 20
      vertex 20 0 0
    endloop
  endfacet
  facet normal 0 0 1
    outer loop
      vertex 0 20 20
      vertex 0 0 20
      vertex 20 0 20
    endloop
  endfacet
  facet normal -1 0 0
    outer loop
      vertex 0 0 0
      vertex 0 20 20
      vertex 0 20 0
    endloop
  endfacet
  facet normal -1 -0 0
    outer loop
      vertex 0 20 20
      vertex 0 0 0
      vertex 0 0 20
    endloop
  endfacet
  facet normal 0 0 -1
    outer loop
      vertex 22 0 0
      vertex 42 10 0
      vertex 42 0 0
    endloop
  endfacet
  facet normal -0 0 -1
    outer loop
      vertex 42 10 0
      vertex 22 0 0
      vertex 22 20 0
    endloop
  endfacet
  facet normal -1 0 0
    outer loop
      vertex 22 0 0
      vertex 22 20 10
      vertex 22 20 0
    endloop
  endfacet
  facet normal -1 -0 0
    outer loop
      vertex 22 20 10
      vertex 22 0 0
      vertex 22 0 10
    endloop
  endfacet
  facet normal 0 -1 0
    outer loop
      vertex 22 0 0
      vertex 42 0 10
      vertex 22 0 10
    endloop
  endfacet
  facet normal 0 -1 -0
    outer loop
      vertex 42 0 10
      vertex 22 0 0
      vertex 42 0 0
    endloop
  endfacet
  facet normal 0 0 1
    outer loop
      vertex 22 0 10
      vertex 42 10 10
      vertex 22 20 10
    endloop
  endfacet
  facet normal 0 0 1
    outer loop
      vertex 42 10 10
      vertex 22 0 10
      vertex 42 0 10
    endloop
  endfacet
  facet normal 0.447214 0.894427 -0
    outer loop
      vertex 42 10 0
      vertex 22 20 10
      vertex 42 10 10
    endloop
  endfacet
  facet normal 0.447214 0.894427 0
    outer loop
      vertex 22 20 10
      vertex 42 10 0
      vertex 22 20 0
    endloop
  endfacet
  facet normal 1 -0 0
    outer loop
      vertex 42 0 10
      vertex 42 10 0
      vertex 42 10 10
    endloop
  endfacet
  facet normal 1 0 0
    outer loop
      vertex 42 10 0
      vertex 42 0 10
      vertex 42 0 0
    endloop
  endfacet
  facet normal 0.707107 0.707107 0
    outer loop
      vertex 64 0 20
      vertex 54 10 0
      vertex 54 10 20
    endloop
  endfacet
  facet normal 0.707107 0.707107 0
    outer loop
      vertex 54 10 0
      vertex 64 0 20
      vertex 64 0 0
    endloop
  endfacet
  facet normal -1 0 0
    outer loop
      vertex 44 0 0
      vertex 44 10 20
      vertex 44 10 0
    endloop
  endfacet
  facet normal -1 -0 0
    outer loop
      vertex 44 10 20
      vertex 44 0 0
      vertex 44 0 20
    endloop
  endfacet
  facet normal 0 -1 0
    outer loop
      vertex 44 0 0
      vertex 64 0 20
      vertex 44 0 20
    endloop
  endfacet
  facet normal 0 -1 -0
    outer loop
      vertex 64 0 20
      vertex 44 0 0
      vertex 64 0 0
    endloop
  endfacet
  facet normal 0 0 -1
    outer loop
      vertex 44 0 0
      vertex 54 10 0
      vertex 64 0 0
    endloop
  endfacet
  facet normal -0 0 -1
    outer loop
      vertex 54 10 0
      vertex 44 0 0
      vertex 44 10 0
    endloop
  endfacet
  facet normal 0 0 1
    outer loop
      vertex 44 0 20
      vertex 54 10 20
      vertex 44 10 20
    endloop
  endfacet
  facet normal 0 0 1
    outer loop
      vertex 54 10 20
      vertex 44 0 20
      vertex 64 0 20
    endloop
  endfacet
  facet normal 0 1 -0
    outer loop
      vertex 54 10 0
      vertex 44 10 20
      vertex 54 10 20
    endloop
  endfacet
  facet normal 0 1 0
    outer loop
      vertex 44 10 20
      vertex 54 10 0
      vertex 44 10 0
    endloop
  endfacet
  facet normal 0 0 -1
    outer loop
      vertex 20 22 0
      vertex 10 32 0
      vertex 20 32 0
    endloop
  endfacet
  facet normal 0 0 -1
    outer loop
      vertex 0 22 0
      vertex 10 32 0
      vertex 20 22 0
    endloop
  endfacet
  facet normal -0 0 -1
    outer loop
      vertex 10 32 0
      vertex 0 22 0
      vertex 0 42 0
    endloop
  endfacet
  facet normal -0 0 1
    outer loop
      vertex 10 32 20
      vertex 20 22 20
      vertex 20 32 20
    endloop
  endfacet
  facet normal 0 0 1
    outer loop
      vertex 0 22 20
      vertex 10 32 20
      vertex 0 42 20
    endloop
  endfacet
  facet normal 0 0 1
    outer loop
      vertex 10 32 20
      vertex 0 22 20
      vertex 20 22 20
    endloop
  endfacet
  facet normal 0 1 -0
    outer loop
      vertex 20 32 0
      vertex 10 32 20
      vertex 20 32 20
    endloop
  endfacet
  facet normal 0 1 0
    outer loop
      vertex 10 32 20
      vertex 20 32 0
      vertex 10 32 0
    endloop
  endfacet
  facet normal 0.707107 0.707107 0
    outer loop
      vertex 10 32 20
      vertex 0 42 0
      vertex 0 42 20
    endloop
  endfacet
  facet normal 0.707107 0.707107 0
    outer loop
      vertex 0 42 0
      vertex 10 32 20
      vertex 10 32 0
    endloop
  endfacet
  facet normal -1 0 0
    outer loop
      vertex 0 22 0
      vertex 0 42 20
      vertex 0 42 0
    endloop
  endfacet
  facet normal -1 -0 0
    outer loop
      vertex 0 42 20
      vertex 0 22 0
      vertex 0 22 20
    endloop
  endfacet
  facet normal 0 -1 0
    outer loop
      vertex 0 22 0
      vertex 20 22 20
      vertex 0 22 20
    endloop
  endfacet
  facet normal 0 -1 -0
    outer loop
      vertex 20 22 20
      vertex 0 22 0
      vertex 20 22 0
    endloop
  endfacet
  facet normal 1 -0 0
    outer loop
      vertex 20 22 20
      vertex 20 32 0
      vertex 20 32 20
    endloop
  endfacet
  facet normal 1 0 0
    outer loop
      vertex 20 32 0
      vertex 20 22 20
      vertex 20 22 0
    endloop
  endfacet
endsolid OpenSCAD_Model
